<?xml version="1.0" standalone="no"?>
<!DOCTYPE svg PUBLIC "-//W3C//DTD SVG 1.1//EN" "http://www.w3.org/Graphics/SVG/1.1/DTD/svg11.dtd" >
<svg>
<metadata>
Created by FontForge 20090914 at Fri Feb 24 15:57:03 2012
 By root
Copyright (c) 2011, Cyreal (www.cyreal.org)with Reserved Font Name "Prata" and "Prata Regular".
</metadata>
<defs>
<font id="Prata-Regular" horiz-adv-x="856" >
  <font-face 
    font-family="Prata"
    font-weight="400"
    font-stretch="normal"
    units-per-em="1000"
    panose-1="2 0 0 0 0 0 0 0 0 0"
    ascent="800"
    descent="-200"
    x-height="517"
    cap-height="800"
    bbox="-38 -302.95 1179 993"
    underline-thickness="50"
    underline-position="-50"
    unicode-range="U+0020-U+2212"
  />
<missing-glyph horiz-adv-x="252" 
 />
    <glyph glyph-name=".notdef" horiz-adv-x="252" 
 />
    <glyph glyph-name=".null" horiz-adv-x="0" 
 />
    <glyph glyph-name="nonmarkingreturn" horiz-adv-x="0" 
 />
    <glyph glyph-name="space" unicode=" " horiz-adv-x="239" 
 />
    <glyph glyph-name="exclam" unicode="!" horiz-adv-x="256" 
d="M86 7q-17 17 -17 43q0 25 18 41.5t41 16.5t41 -16.5t18 -41.5t-17 -42.5t-42 -17.5q-11 0 -22.5 4t-19.5 13zM140 165h-24q-1 41 -4 98.5t-8 120t-10.5 124.5l-10 113.5l-7.5 87t-3 43.5q0 23 15 40.5t40 17.5t40 -17.5t15 -40.5q0 -9 -3 -44.5l-7.5 -87l-10 -113.5
t-10 -124.5t-8 -119.5t-4.5 -98z" />
    <glyph glyph-name="quotedbl" unicode="&#x22;" horiz-adv-x="272" 
d="M90 565h-17q-2 31 -7 64.5t-10 62l-8.5 49.5t-3.5 29q0 16 9.5 28t27.5 12t28 -12t10 -28q0 -8 -3.5 -29l-8.5 -49.5t-10 -62t-7 -64.5zM200 565h-17q-2 31 -7 64.5t-10 62l-8.5 49.5t-3.5 29q0 16 9.5 28t27.5 12t28 -12t10 -28q0 -8 -3.5 -29l-8.5 -49.5t-10 -62
t-7 -64.5z" />
    <glyph glyph-name="numbersign" unicode="#" horiz-adv-x="581" 
d="M69 383v45h111l54 287h46l-55 -287h155l54 287h46l-55 -287h116v-45h-124l-24 -128h115v-45h-124l-39 -210h-45l39 210h-155l-39 -210h-45l39 210h-103v45h112l24 128h-103zM217 383l-24 -128h155l24 128h-155z" />
    <glyph glyph-name="dollar" unicode="$" horiz-adv-x="657" 
d="M87 -10h-22v257h22l86 -186q69 -48 151 -57v355l-81 21q-87 23 -131 76.5t-44 128.5q0 106 62 170.5t172 64.5q14 0 22 -1v76h17v-77q5 0 18 -2v79h17v-81q47 -8 89 -25l73 31h22v-204h-22l-72 146q-42 20 -90 29v-324l59 -15q88 -23 130 -74.5t42 -160.5
q0 -106 -62.5 -168.5t-168.5 -67.5v-86h-17v85h-5q-2 0 -6.5 0.5t-6.5 0.5v-86h-17v87q-79 7 -152 51zM116 636q0 -101 140 -137l68 -18v316q-7 1 -21 1q-87 0 -137 -44.5t-50 -117.5zM409 337l-33 8v-343q84 4 137 50t53 127q0 62 -37.5 99.5t-119.5 58.5zM341 3
q6 -1 18 -1v347l-18 5v-351zM359 794l-18 2v-320l18 -5v323z" />
    <glyph glyph-name="percent" unicode="%" horiz-adv-x="825" 
d="M631 -5q-72 0 -115.5 56t-43.5 162t43.5 161.5t115.5 55.5t115 -55.5t43 -161.5t-43 -162t-115 -56zM712 162v102q0 145 -81 145t-81 -145v-102q0 -145 81 -145t81 145zM194 370q-72 0 -115 56t-43 162t43 161.5t115 55.5t115.5 -55.5t43.5 -161.5t-43.5 -162t-115.5 -56
zM275 537v102q0 145 -81 145t-81 -145v-102q0 -145 81 -145t81 145zM638 800l-399 -800h-52l400 800h51z" />
    <glyph glyph-name="ampersand" unicode="&#x26;" horiz-adv-x="817" 
d="M442 289q-100 0 -100 -55q0 -28 32 -28t45 27q49 -12 49 -55q0 -24 -17.5 -42t-43.5 -18q-38 0 -63 33t-25 81q0 60 43 102t117 42q46 0 106 -9.5t90 -9.5q47 0 75.5 14.5t28.5 40.5q0 29 -31 29q-32 0 -45 -28q-49 11 -49 55q0 24 17.5 42t43.5 18q38 0 61.5 -29.5
t23.5 -75.5q0 -157 -150 -157q-43 0 -71 4q8 -40 8 -73q0 -103 -58 -160t-157 -57q-162 0 -241.5 64.5t-79.5 173.5q0 105 76.5 162.5t200.5 63.5v3q-124 16 -183.5 59.5t-59.5 138.5q0 84 67.5 129.5t188.5 45.5q81 0 135.5 -39t54.5 -104q0 -33 -18.5 -51.5t-42.5 -18.5
q-25 0 -42 15t-17 44q42 19 42 63q0 31 -27 49.5t-74 18.5q-68 0 -108.5 -40t-40.5 -107q0 -96 56.5 -141.5t165.5 -51.5v-22q-237 -15 -237 -217q0 -100 54.5 -157.5t137.5 -57.5q81 0 132 49.5t51 142.5q0 37 -11 79q-14 2 -37.5 6.5t-40 6.5t-32.5 2z" />
    <glyph glyph-name="quotesingle" unicode="'" horiz-adv-x="162" 
d="M90 565h-17q-2 31 -7 64.5t-10 62l-8.5 49.5t-3.5 29q0 16 9.5 28t27.5 12t28 -12t10 -28q0 -8 -3.5 -29l-8.5 -49.5t-10 -62t-7 -64.5z" />
    <glyph glyph-name="parenleft" unicode="(" horiz-adv-x="344" 
d="M157 356q0 -119 18.5 -216.5t48.5 -159t61.5 -98.5t64.5 -53l-6 -24q-142 41 -224.5 189t-82.5 362q0 215 82 362.5t224 188.5l7 -23q-193 -70 -193 -528z" />
    <glyph glyph-name="parenright" unicode=")" horiz-adv-x="344" 
d="M187 356q0 458 -193 528l7 23q142 -41 224 -188.5t82 -362.5q0 -214 -82.5 -362t-224.5 -189l-6 24q33 16 64.5 53t61.5 98.5t48.5 159t18.5 216.5z" />
    <glyph glyph-name="asterisk" unicode="*" horiz-adv-x="450" 
d="M232 552q0 -1 1.5 -12l4 -28t5 -36t5 -35.5t4 -28l1.5 -11.5q0 -12 -7.5 -20t-19.5 -8q-14 0 -20.5 8t-6.5 20q6 42 10 75l7 52t3 24l-120 -93q-7 -4 -15 -4q-12 0 -19.5 7.5t-7.5 19.5q0 7 0.5 11t7.5 8.5t24.5 11.5l52.5 21q60 24 70 30q-1 0 -22.5 9l-48 20l-48 20
t-22.5 9q-15 7 -15 24q0 11 8 18.5t19 7.5q5 0 8 -0.5t9.5 -5t19.5 -15l38 -30.5l41 -32.5t20 -13.5l-3.5 24t-7 52t-7 52l-3.5 24q0 14 8 20.5t19 6.5q10 0 18.5 -6.5t8.5 -20.5q-6 -42 -10 -75l-7 -52.5t-3 -24.5l9 7l22.5 17.5l29.5 22l29.5 22l22.5 17.5l9 7q9 6 16 6
q8 0 16 -8t8 -21q0 -7 -0.5 -11.5t-8 -9.5t-25 -12t-51.5 -19q-31 -11 -48 -18.5t-22 -10.5l10.5 -4.5l26 -11l33.5 -14l33.5 -14l26 -11l10.5 -4.5q16 -9 16 -22q0 -11 -8 -20t-17 -9h-7.5t-9 4t-20 14.5l-40.5 32.5q-26 20 -41 32.5t-20 14.5z" />
    <glyph glyph-name="plus" unicode="+" horiz-adv-x="525" 
d="M243 586h38v-210h211v-38h-211v-211h-38v211h-210v38h210v210z" />
    <glyph glyph-name="comma" unicode="," horiz-adv-x="228" 
d="M60 -162l-11 16q15 9 29 22t25.5 28.5t18 32t6.5 33.5q0 20 -20 20q-25 0 -42.5 17.5t-17.5 42.5t17.5 41.5t42.5 16.5q35 0 55.5 -25t20.5 -67q0 -117 -124 -178z" />
    <glyph glyph-name="hyphen" unicode="-" horiz-adv-x="343" 
d="M62 257v33h219v-33h-219z" />
    <glyph glyph-name="period" unicode="." horiz-adv-x="215" 
d="M65 7q-17 17 -17 43q0 25 18.5 41.5t41.5 16.5t41 -16.5t18 -41.5t-17 -42.5t-42 -17.5q-26 0 -43 17z" />
    <glyph glyph-name="slash" unicode="/" horiz-adv-x="436" 
d="M394 700l-310 -700h-52l311 700h51z" />
    <glyph glyph-name="zero" unicode="0" horiz-adv-x="690" 
d="M556 87q-78 -107 -211 -107q-67 0 -120.5 27.5t-91 80.5t-57.5 131.5t-20 180.5q0 103 20.5 181.5t58 131.5t91 80t119.5 27t119 -27t91 -80t58.5 -131.5t20.5 -181.5q0 -205 -78 -313zM506 304v193q0 154 -43 227t-118 73t-118 -73t-43 -227v-193q0 -154 43 -227.5
t118 -73.5t118 72.5t43 228.5z" />
    <glyph glyph-name="one" unicode="1" horiz-adv-x="340" 
d="M52 780v20h170v-770l70 -10v-20h-240v20l70 10v740z" />
    <glyph glyph-name="two" unicode="2" horiz-adv-x="608" 
d="M539 253v-253h-503v77l211 215q170 172 170 336q0 169 -139 169q-50 0 -87 -27t-37 -71q0 -53 53 -79q0 -36 -22 -55t-52 -19q-32 0 -55 23.5t-23 64.5q0 81 71 133.5t168 52.5q123 0 181.5 -58t58.5 -151q0 -54 -19.5 -98.5t-58 -85.5t-118.5 -111l-239 -211h373l41 148
h26z" />
    <glyph glyph-name="three" unicode="3" horiz-adv-x="615" 
d="M190 435v22q105 6 163.5 56.5t58.5 136.5q0 67 -36.5 107t-97.5 40q-55 0 -86.5 -18.5t-31.5 -51.5q0 -53 50 -76q0 -35 -20.5 -53t-49.5 -18q-30 0 -52 23t-22 61q0 67 66.5 111.5t156.5 44.5q114 0 178 -46t64 -129q0 -166 -244 -198v-3q125 -6 201.5 -66.5
t76.5 -169.5q0 -96 -77.5 -162t-222.5 -66q-94 0 -159.5 52t-65.5 129q0 41 23 64.5t55 23.5q30 0 52 -19t22 -55q-53 -26 -53 -80q0 -41 34.5 -66.5t91.5 -25.5q72 0 117 54t45 151q0 212 -237 227z" />
    <glyph glyph-name="four" unicode="4" horiz-adv-x="583" 
d="M0 192v21l424 587h23v-561h92v-47h-92v-156l92 -15v-21h-294v21l92 15v156h-337zM49 239h288v399z" />
    <glyph glyph-name="five" unicode="5" horiz-adv-x="603" 
d="M126 453l-18 13l44 334h265q60 0 87.5 9.5t37.5 44.5l23 -1q-8 -97 -48.5 -133.5t-114.5 -36.5h-239l-26 -199q50 14 105 14q135 0 221.5 -76.5t86.5 -189.5q0 -46 -17.5 -89t-52 -80.5t-94.5 -60t-136 -22.5q-94 0 -159.5 52t-65.5 129q0 41 23 64.5t55 23.5
q30 0 52 -19t22 -55q-53 -26 -53 -80q0 -41 34.5 -66.5t91.5 -25.5q75 0 118.5 64t43.5 166q0 118 -51.5 177.5t-136.5 59.5q-45 0 -98 -17z" />
    <glyph glyph-name="six" unicode="6" horiz-adv-x="644" 
d="M181 535l-1 -112q62 75 163 75q112 0 182 -67.5t70 -186.5q0 -122 -78 -193t-191 -71q-76 0 -129.5 31.5t-83.5 91t-43 134.5t-13 173q0 202 78.5 306t216.5 104q94 0 156 -38.5t62 -96.5q0 -34 -21.5 -57.5t-53.5 -23.5q-27 0 -45 15t-18 41q28 22 28 53q0 37 -30 62
t-78 25q-170 0 -171 -265zM336 474q-49 0 -91 -26.5t-65 -72.5l-1 -139q-2 -234 147 -234q72 0 110.5 51t38.5 141v98q0 87 -34.5 134.5t-104.5 47.5z" />
    <glyph glyph-name="seven" unicode="7" horiz-adv-x="497" 
d="M276 0h-137q8 78 33 151t59 135.5l67.5 121.5t69 133t60.5 155h-335l-27 -119h-26v223h439q-12 -103 -43 -216t-62.5 -195.5t-60.5 -189t-37 -199.5z" />
    <glyph glyph-name="eight" unicode="8" horiz-adv-x="643" 
d="M51 188q0 48 15 85.5t44 68t57 49.5t69 40l-46 30q-108 76 -108 168q0 86 71.5 138.5t172.5 52.5q89 0 156.5 -44.5t67.5 -123.5q0 -65 -38 -111t-107 -83q76 -47 107.5 -74t57 -72t25.5 -98q0 -109 -81 -171.5t-190 -62.5q-129 0 -201 54t-72 154zM374 342l-109 70
q-57 -44 -84.5 -104t-27.5 -126q0 -76 40.5 -127.5t125.5 -51.5q81 0 131 44.5t50 107.5q0 51 -28.5 95.5t-97.5 91.5zM171 683q0 -42 25 -75t75 -66l106 -67q82 58 82 174q0 65 -40 106.5t-105 41.5q-57 0 -100 -32.5t-43 -81.5z" />
    <glyph glyph-name="nine" unicode="9" horiz-adv-x="644" 
d="M292 0q170 0 171 265v112q-60 -75 -162 -75q-112 0 -182 67.5t-70 186.5q0 122 78 193t191 71q76 0 129.5 -31.5t83.5 -91t43 -134.5t13 -173q0 -202 -78.5 -306t-216.5 -104q-94 0 -156 38.5t-62 96.5q0 34 21.5 57.5t53.5 23.5q27 0 45 -15t18 -41q-28 -22 -28 -53
q0 -37 30 -62t78 -25zM308 326q48 0 90.5 26.5t65.5 72.5l1 139q2 234 -147 234q-72 0 -110.5 -51t-38.5 -141v-98q0 -87 34.5 -134.5t104.5 -47.5z" />
    <glyph glyph-name="colon" unicode=":" horiz-adv-x="243" 
d="M79 7q-17 17 -17 43q0 25 18.5 41.5t41.5 16.5t41 -16.5t18 -41.5t-17 -42.5t-42 -17.5q-26 0 -43 17zM79 358q-17 17 -17 43q0 25 18.5 41.5t41.5 16.5t41 -16.5t18 -41.5t-17 -42.5t-42 -17.5q-26 0 -43 17z" />
    <glyph glyph-name="semicolon" unicode=";" horiz-adv-x="268" 
d="M85 358q-17 17 -17 43q0 25 18.5 41.5t41.5 16.5t41 -16.5t18 -41.5t-17 -42.5t-42 -17.5q-26 0 -43 17zM80 -162l-11 16q15 9 29 22t25.5 28.5t18 32t6.5 33.5q0 20 -20 20q-25 0 -42.5 17.5t-17.5 42.5t17.5 41.5t42.5 16.5q35 0 55.5 -25t20.5 -67q0 -117 -124 -178z
" />
    <glyph glyph-name="less" unicode="&#x3c;" horiz-adv-x="486" 
d="M31 347v20l389 210v-38l-335 -182l335 -180v-38z" />
    <glyph glyph-name="equal" unicode="=" horiz-adv-x="603" 
d="M72 255v38h459v-38h-459zM72 421v38h459v-38h-459z" />
    <glyph glyph-name="greater" unicode="&#x3e;" horiz-adv-x="486" 
d="M455 367v-20l-389 -208v38l335 180l-335 182v38z" />
    <glyph glyph-name="question" unicode="?" horiz-adv-x="522" 
d="M191 7q-17 17 -17 43q0 25 18 41.5t41 16.5t41 -16.5t18 -41.5t-17 -42.5t-42 -17.5q-11 0 -22.5 4t-19.5 13zM222 165q0 51 10.5 93t25.5 78t33.5 69t33.5 66t25.5 68.5t10.5 76.5q0 51 -7.5 86t-21.5 56t-34.5 30.5t-46.5 9.5q-24 0 -46 -7t-39.5 -19t-27.5 -29
t-10 -38q0 -52 50 -76q0 -35 -20.5 -53.5t-49.5 -18.5q-30 0 -52.5 22.5t-22.5 61.5q0 40 19.5 73t52 56.5t75 36.5t87.5 13q108 0 162 -45t54 -152q0 -37 -10.5 -67t-28 -55.5t-39 -49.5l-42.5 -49l-57 -67q-26 -32 -44.5 -76.5t-17.5 -93.5h-22z" />
    <glyph glyph-name="at" unicode="@" horiz-adv-x="882" 
d="M616 184q-88 0 -116 58q-56 -57 -130 -57q-41 0 -71.5 13t-51.5 36.5t-31.5 55.5t-10.5 70q0 60 22 111.5t58 89.5t82 59.5t95 21.5q42 0 74 -18.5t48 -47.5l16 49h82l-95 -333q-6 -23 -6 -37q0 -40 55 -40q37 0 69.5 21t57 55.5t38.5 79.5t14 93q0 73 -25.5 132
t-71.5 100.5t-111.5 64t-144.5 22.5t-148.5 -29.5t-121.5 -81t-82 -121.5t-30 -151t29.5 -150.5t81.5 -120.5t121.5 -80t149.5 -29q39 0 70 3.5t59.5 11t55 19.5t56.5 29l14 -26q-32 -18 -61.5 -30.5t-60 -20.5t-63 -12t-70.5 -4q-87 0 -162 31.5t-130.5 87t-87 130
t-31.5 161.5t31.5 161.5t87 130t130.5 87t162 31.5t157.5 -25t121 -70t77.5 -109t27 -142q0 -60 -17.5 -111t-48 -88.5t-72.5 -59t-91 -21.5zM495 281l78 261q-32 69 -102 69q-36 0 -67.5 -25t-54.5 -65.5t-36 -91.5t-13 -103q0 -48 21 -76.5t64 -28.5q66 0 110 60z" />
    <glyph glyph-name="A" unicode="A" horiz-adv-x="721" 
d="M187 21v-21h-214v21l98 40l289 759h16l273 -784l92 -15v-21h-294v21l82 13l-85 237h-266l-81 -210zM317 644l-131 -352h251z" />
    <glyph glyph-name="B" unicode="B" horiz-adv-x="740" 
d="M689 216q0 -110 -80.5 -163t-217.5 -53h-353v21l92 15v728l-92 14v22h305q159 0 226.5 -44.5t67.5 -142.5q0 -144 -182 -184v-5q234 -31 234 -208zM391 407h-151v-383h151q85 0 132 49.5t47 141.5v11q0 91 -46.5 136t-132.5 45zM343 775h-103v-343h111q80 0 123 45
t43 128v6q0 164 -174 164z" />
    <glyph glyph-name="C" unicode="C" horiz-adv-x="740" 
d="M654 820h21v-248h-21l-62 155q-76 70 -173 70q-53 0 -96.5 -21t-75 -60.5t-48.5 -96t-17 -127.5v-183q0 -72 16.5 -128.5t46.5 -96t73 -60.5t96 -21q51 0 102 22.5t85 60.5l58 161h21v-257h-21l-72 51q-76 -61 -173 -61q-83 0 -149.5 30.5t-114 86t-73 132.5t-25.5 171
q0 93 26.5 170t74.5 132.5t115.5 86.5t150.5 31q90 0 168 -57z" />
    <glyph glyph-name="D" unicode="D" horiz-adv-x="850" 
d="M240 800h181q82 0 151.5 -29t119.5 -81.5t78 -126t28 -163.5t-27.5 -164t-77.5 -126.5t-119.5 -81t-152.5 -28.5h-383v21l92 15v728l-92 14v22h202zM421 775h-181v-751h181q111 0 180.5 77.5t69.5 221.5v154q0 144 -69 221t-181 77z" />
    <glyph glyph-name="E" unicode="E" horiz-adv-x="716" 
d="M429 560h26v-316h-26l-60 147h-129v-367h314l82 220h26v-244h-624v21l92 15v728l-92 14v22h602v-229h-27l-77 204h-296v-360h130z" />
    <glyph glyph-name="F" unicode="F" horiz-adv-x="669" 
d="M332 21v-21h-294v21l92 15v728l-92 14v22h602v-244h-27l-77 219h-296v-375h169l59 145h27v-316h-27l-59 147h-169v-340z" />
    <glyph glyph-name="G" unicode="G" horiz-adv-x="812" 
d="M659 820h21v-248h-21l-66 165q-72 60 -169 60q-107 0 -175.5 -81.5t-68.5 -223.5v-183q0 -143 64 -224.5t170 -81.5q86 0 133.5 58t47.5 157v113l-93 14v22h299v-22l-93 -14v-113q0 -99 -73.5 -168.5t-220.5 -69.5q-165 0 -263.5 116t-98.5 304q0 187 103 303.5
t269 116.5q102 0 174 -52z" />
    <glyph glyph-name="H" unicode="H" horiz-adv-x="860" 
d="M822 21v-21h-295v21l93 15v375h-380v-375l92 -15v-21h-294v21l92 15v728l-92 14v22h294v-22l-92 -14v-328h380v328l-93 14v22h295v-22l-93 -14v-728z" />
    <glyph glyph-name="I" unicode="I" horiz-adv-x="370" 
d="M332 21v-21h-294v21l92 15v728l-92 14v22h294v-22l-92 -14v-728z" />
    <glyph glyph-name="J" unicode="J" horiz-adv-x="447" 
d="M146 -20q-60 0 -99.5 26t-39.5 76q0 33 18.5 53.5t48.5 20.5q24 0 40 -15t20 -29l3 -15q-29 -21 -29 -49q0 -19 12 -32t33 -13q32 0 48.5 43t20.5 151v567l-92 14v22h290v-22l-92 -14v-567q0 -52 -6.5 -87t-25 -67t-56 -47.5t-94.5 -15.5z" />
    <glyph glyph-name="K" unicode="K" horiz-adv-x="737" 
d="M766 0h-295v21l91 14l-262 395l-60 -61v-333l92 -15v-21h-294v21l92 15v728l-92 14v22h294v-22l-92 -14v-360l325 332l-109 42v22h231v-22l-82 -42l-227 -228l320 -472l68 -15v-21z" />
    <glyph glyph-name="L" unicode="L" horiz-adv-x="672" 
d="M38 800h294v-22l-92 -14v-740h299l82 220h27v-244h-610v21l92 15v728l-92 14v22z" />
    <glyph glyph-name="M" unicode="M" horiz-adv-x="1008" 
d="M132 61v703l-92 14v22h221l251 -642l256 642h202v-22l-92 -14v-728l92 -15v-21h-294v21l92 15v698l-296 -744h-18l-298 774v-703l96 -40v-21h-214v21z" />
    <glyph glyph-name="N" unicode="N" horiz-adv-x="810" 
d="M134 61v678l-93 39v22h186l431 -604v543l-93 39v22h213v-22l-95 -39v-739h-25l-499 701v-640l96 -40v-21h-214v21z" />
    <glyph glyph-name="O" unicode="O" 
d="M51 400q0 94 28 171t78.5 132.5t119.5 86t151 30.5t151.5 -31t119.5 -86.5t78 -132.5t28 -170q0 -92 -27.5 -169t-77.5 -133t-119.5 -87t-152.5 -31t-152 31t-119 86.5t-78 132.5t-28 170zM681 323v154q0 74 -19 133t-52.5 100.5t-80 64t-101.5 22.5t-101.5 -22.5
t-80 -64t-52.5 -100.5t-19 -133v-154q0 -74 18.5 -133.5t52.5 -101t80 -63.5t102 -22q55 0 101.5 22t80.5 63.5t52.5 101t18.5 133.5z" />
    <glyph glyph-name="P" unicode="P" horiz-adv-x="676" 
d="M352 310h-112v-274l92 -15v-21h-294v21l92 15v728l-92 14v22h314q292 0 292 -245t-292 -245zM338 775h-98v-441h98q185 0 185 201v40q0 200 -185 200z" />
    <glyph glyph-name="Q" unicode="Q" 
d="M613 -208v-23h-33q-212 0 -212 173v43q-71 10 -129.5 44.5t-100 89t-64.5 126t-23 155.5q0 94 28 171t78.5 132.5t119.5 86t151 30.5t151.5 -31t119.5 -86.5t78 -132.5t28 -170q0 -83 -22.5 -153.5t-64 -125t-99.5 -90t-128 -46.5v-67q0 -126 122 -126zM428 3
q110 0 180.5 85.5t70.5 234.5v154q0 149 -70.5 234.5t-180.5 85.5q-111 0 -181 -85.5t-70 -234.5v-154q0 -149 70 -234.5t181 -85.5z" />
    <glyph glyph-name="R" unicode="R" horiz-adv-x="726" 
d="M729 69l17 -18q-54 -61 -127 -61q-56 0 -84 27t-38 92l-19 134q-21 145 -160 145h-78v-352l92 -15v-21h-294v21l92 15v728l-92 14v22h202h78q163 0 236 -51t73 -155q0 -172 -208 -199v-6q157 -22 182 -172l13 -86q8 -50 17 -70.5t26 -24.5q34 -6 72 33zM318 775h-78v-363
h112q73 0 113.5 44.5t40.5 131.5v21q0 166 -188 166z" />
    <glyph glyph-name="S" unicode="S" horiz-adv-x="651" 
d="M537 820h22v-204h-22l-72 146q-75 36 -163 36q-87 0 -137 -44.5t-50 -117.5q0 -54 35.5 -85t104.5 -49l179 -47q87 -22 129.5 -75.5t42.5 -162.5q0 -111 -68.5 -174t-183.5 -63q-93 0 -183 53l-85 -43h-22v257h22l86 -186q83 -59 190 -59q88 0 145.5 46.5t57.5 130.5
q0 61 -37 96.5t-120 56.5l-166 43q-87 23 -131 78.5t-44 131.5q0 106 62 170.5t172 64.5q91 0 163 -31z" />
    <glyph glyph-name="T" unicode="T" horiz-adv-x="698" 
d="M645 577l-75 198h-166v-739l92 -15v-21h-294v21l92 15v739h-165l-76 -198h-29v223h651v-223h-30z" />
    <glyph glyph-name="U" unicode="U" horiz-adv-x="807" 
d="M686 219q0 -120 -67 -179.5t-218 -59.5q-147 0 -215 65.5t-68 173.5v545l-92 14v22h294v-22l-92 -14v-545q0 -203 222 -203q212 0 212 203v520l-93 39v22h213v-22l-96 -39v-520z" />
    <glyph glyph-name="V" unicode="V" horiz-adv-x="693" 
d="M340 -20l-288 784l-80 14v22h293v-22l-94 -12l220 -599l216 566l-115 45v22h215v-22l-73 -44l-286 -754h-8z" />
    <glyph glyph-name="W" unicode="W" horiz-adv-x="1083" 
d="M891 778v22h215v-22l-76 -44l-286 -754h-8l-195 539l-204 -539h-8l-282 784l-67 14v22h278v-22l-91 -14l215 -592l146 382l-75 210l-92 14v22h297v-22l-86 -12l217 -593l215 560z" />
    <glyph glyph-name="X" unicode="X" horiz-adv-x="761" 
d="M241 21v-21h-239v21l99 56l229 306l-253 381l-85 14v22h303v-22l-79 -12l194 -294l193 258l-119 48v22h239v-22l-95 -53l-204 -273l277 -417l86 -14v-21h-304v21l79 13l-218 328l-221 -294z" />
    <glyph glyph-name="Y" unicode="Y" horiz-adv-x="676" 
d="M399 373v-337l93 -15v-21h-294v21l93 15v304l-243 424l-79 14v22h301v-22l-93 -14l210 -363l193 329l-120 48v22h224v-22l-77 -49z" />
    <glyph glyph-name="Z" unicode="Z" horiz-adv-x="682" 
d="M80 800h550v-25l-469 -751h350l103 205h26l-24 -229h-589v24l468 751h-310l-103 -190h-26z" />
    <glyph glyph-name="bracketleft" unicode="[" horiz-adv-x="310" 
d="M300 -185h-214v1082h214v-30h-113v-1022h113v-30z" />
    <glyph glyph-name="backslash" unicode="\" horiz-adv-x="436" 
d="M352 0l-310 700h51l311 -700h-52z" />
    <glyph glyph-name="bracketright" unicode="]" horiz-adv-x="310" 
d="M11 -155h113v1022h-113v30h214v-1082h-214v30z" />
    <glyph glyph-name="asciicircum" unicode="^" horiz-adv-x="574" 
d="M267 674h39l206 -407h-50l-176 345l-175 -345h-50z" />
    <glyph glyph-name="underscore" unicode="_" horiz-adv-x="459" 
d="M459 -78v-35h-459v35h459z" />
    <glyph glyph-name="grave" unicode="`" horiz-adv-x="221" 
d="M-20 722q0 19 14 33t33 14q30 0 44 -28l73 -158l-16 -12l-131 116q-17 14 -17 35z" />
    <glyph glyph-name="a" unicode="a" horiz-adv-x="558" 
d="M366 99q-25 -51 -75 -80t-113 -29q-61 0 -101 33.5t-40 99.5q0 51 25 84.5t66 54t93.5 28.5t107.5 8h37v95q0 112 -102 112q-45 0 -74 -21t-29 -47q0 -29 28 -38q0 -25 -19 -44t-45 -19t-44 18.5t-18 44.5q0 29 16.5 52.5t44 40.5t64 26t76.5 9q202 0 202 -154v-306
q0 -45 37 -45t37 43h21q0 -35 -23 -55t-66 -20t-74 27t-32 82zM366 170v103h-37q-78 0 -130.5 -37t-52.5 -113q0 -40 22 -63t60 -23q49 0 90.5 36t47.5 97z" />
    <glyph glyph-name="b" unicode="b" horiz-adv-x="640" 
d="M20 0v20l70 10v740l-70 10v20h170v-387q54 114 169 114q54 0 98.5 -19.5t75.5 -55t48 -84.5t17 -109t-17 -109.5t-48 -85t-75.5 -55t-98.5 -19.5q-115 0 -169 114v-104h-170zM488 209v100q0 193 -139 193q-67 0 -112 -54.5t-47 -131.5v-107q0 -79 45.5 -136.5
t113.5 -57.5q139 0 139 194z" />
    <glyph glyph-name="c" unicode="c" horiz-adv-x="543" 
d="M381 369q27 19 27 52q0 37 -29.5 60.5t-78.5 23.5q-72 0 -110.5 -51.5t-38.5 -144.5v-100q0 -89 37.5 -143t111.5 -54q68 0 118.5 38.5t62.5 101.5h23q-14 -74 -69.5 -118t-134.5 -44q-110 0 -184.5 74.5t-74.5 194.5q0 124 77 196t182 72q87 0 146.5 -43.5t59.5 -109.5
q0 -33 -17 -50.5t-45 -17.5q-27 0 -45 18t-18 45z" />
    <glyph glyph-name="d" unicode="d" horiz-adv-x="640" 
d="M450 0v104q-54 -114 -169 -114q-54 0 -98 19t-75.5 54.5t-48.5 85t-17 110.5t17 110.5t48.5 84.5t75.5 54t98 19q115 0 169 -114v357l-70 10v20h170v-770l70 -10v-20h-170zM152 309v-100q0 -194 139 -194q66 0 111.5 54.5t47.5 131.5v115q-2 77 -47.5 131.5t-111.5 54.5
q-139 0 -139 -193z" />
    <glyph glyph-name="e" unicode="e" horiz-adv-x="557" 
d="M305 12q34 0 65.5 10.5t56.5 29t42 44t23 56.5h23q-14 -75 -71 -118.5t-139 -43.5q-56 0 -104.5 19.5t-84 54.5t-55.5 85t-20 110t20 109.5t54.5 84.5t82 54.5t101.5 19.5q48 0 88 -16t69 -45.5t45.5 -69.5t17.5 -88h-368v-99q0 -44 10 -80t29.5 -62t48 -40.5t66.5 -14.5
zM298 505q-67 0 -104 -47t-42 -125h257q0 172 -111 172z" />
    <glyph glyph-name="f" unicode="f" horiz-adv-x="342" 
d="M26 0v20l70 10v458l-70 10v20h70v84q0 208 172 208q59 0 97.5 -28.5t38.5 -77.5q0 -30 -16.5 -49t-44.5 -19q-25 0 -44 19t-19 44q34 10 34 47q0 17 -13.5 29.5t-32.5 12.5q-39 0 -55.5 -36.5t-16.5 -118.5v-115h130v-20l-130 -10v-458l119 -10v-20h-289z" />
    <glyph glyph-name="g" unicode="g" horiz-adv-x="539" 
d="M381 -27h-195q-141 0 -141 99q0 45 24.5 74t66.5 37q-78 51 -78 155q0 88 58 138.5t145 50.5q83 0 139 -44q38 3 57 18.5t19 36.5q0 17 -10 26.5t-24 9.5q0 25 18.5 43t43.5 18q27 0 45 -16.5t18 -44.5q0 -43 -35.5 -73t-112.5 -36q47 -50 47 -127q0 -87 -58 -137.5
t-147 -50.5q-57 0 -98 19q-30 -2 -48.5 -15t-18.5 -37q0 -23 25.5 -35.5t64.5 -12.5h165q80 0 121 -31t41 -105q0 -96 -65.5 -160.5t-179.5 -64.5q-130 0 -191.5 38.5t-61.5 101.5q0 37 26 64.5t71 27.5q9 0 37 -4q-31 -33 -31 -84q0 -48 35.5 -86.5t115.5 -38.5
q94 0 154.5 50.5t60.5 113.5q0 43 -22 62.5t-81 19.5zM372 314v49q0 147 -111 147q-109 0 -109 -147v-49q0 -69 27 -108t82 -39q56 0 83.5 39t27.5 108z" />
    <glyph glyph-name="h" unicode="h" horiz-adv-x="627" 
d="M20 780v20h170v-390q81 117 195 117q72 0 113.5 -36t41.5 -107v-354l70 -10v-20h-230v20l60 10v352q0 109 -86 109q-46 0 -88.5 -33.5t-75.5 -82.5v-345l60 -10v-20h-230v20l70 10v740z" />
    <glyph glyph-name="i" unicode="i" horiz-adv-x="287" 
d="M133 767q27 0 46 -19t19 -47t-19 -47.5t-46 -19.5q-28 0 -48 19.5t-20 47.5t19.5 47t48.5 19zM27 497v20h170v-487l70 -10v-20h-240v20l70 10v457z" />
    <glyph glyph-name="j" unicode="j" horiz-adv-x="266" 
d="M87 -195q-51 0 -84.5 28.5t-33.5 77.5q0 30 17 49t45 19q25 0 40 -13.5t19 -26.5l4 -13q-32 -21 -32 -53q0 -41 41 -41q26 0 41.5 21.5t15.5 59.5q0 20 -11 47.5t-24.5 57.5t-24.5 59.5t-11 55.5v355l-75 10v20h175v-575q0 -138 -102 -138zM127 767q27 0 46 -19t19 -47
t-19 -47.5t-46 -19.5q-28 0 -48 19.5t-20 47.5t19.5 47t48.5 19z" />
    <glyph glyph-name="k" unicode="k" horiz-adv-x="566" 
d="M20 0v20l70 10v740l-70 10v20h170v-513l229 188l-87 23v20h188v-20l-64 -23l-166 -136l234 -310l54 -9v-20h-234v20l60 10l-188 248l-26 -22v-226l60 -10v-20h-230z" />
    <glyph glyph-name="l" unicode="l" horiz-adv-x="283" 
d="M18 780v20h175v-770l70 -10v-20h-245v20l75 10v740z" />
    <glyph glyph-name="m" unicode="m" horiz-adv-x="944" 
d="M366 0v20l60 10v352q0 109 -81 109q-78 0 -149 -100v-361l60 -10v-20h-230v20l70 10v458l-70 10v20h170v-92q77 101 180 101q127 0 148 -106q77 106 183 106q71 0 110.5 -35.5t39.5 -107.5v-354l70 -10v-20h-230v20l60 10v352q0 109 -81 109q-78 0 -149 -100v-7v-354
l60 -10v-20h-221z" />
    <glyph glyph-name="n" unicode="n" horiz-adv-x="633" 
d="M386 0v20l60 10v352q0 109 -86 109q-46 0 -88.5 -33.5t-75.5 -82.5v-345l60 -10v-20h-230v20l70 10v458l-70 10v20h170v-108q81 117 195 117q72 0 113.5 -36t41.5 -107v-354l70 -10v-20h-230z" />
    <glyph glyph-name="o" unicode="o" horiz-adv-x="600" 
d="M449 209v100q0 90 -37 143t-112 53t-112 -53t-37 -143v-100q0 -89 37.5 -143t111.5 -54t111.5 54t37.5 143zM115 64q-74 76 -74 195q0 60 20 109.5t55 85t82.5 54.5t101.5 19q55 0 102 -19.5t82 -55t55 -85t20 -108.5t-20 -108.5t-54.5 -85t-82 -55.5t-102.5 -20
q-109 0 -185 74z" />
    <glyph glyph-name="p" unicode="p" horiz-adv-x="640" 
d="M190 518v-106q52 115 169 115q54 0 98 -19.5t75.5 -55t48.5 -85t17 -109.5t-17 -109.5t-48 -84.5t-75.5 -54.5t-98.5 -19.5q-115 0 -169 114v-357l94 -10v-20h-264v20l70 10v741l-70 10v20h170zM488 208v100q0 194 -139 194q-34 0 -62.5 -15.5t-50 -41t-33.5 -59.5
t-13 -71v-107q0 -39 12 -74.5t33.5 -61.5t50.5 -41.5t63 -15.5q139 0 139 193z" />
    <glyph glyph-name="q" unicode="q" horiz-adv-x="640" 
d="M450 -253v357q-54 -114 -169 -114q-54 0 -98 19t-75.5 54t-48.5 84.5t-17 110.5t17 110.5t48.5 84.5t75.5 54.5t98 19.5q117 0 169 -115v106h170v-20l-70 -10v-741l70 -10v-20h-289v20zM152 308v-100q0 -193 139 -193q33 0 62 15t50 40.5t33.5 59t13.5 70.5v115
q-1 37 -13.5 71t-33.5 59.5t-50 41t-62 15.5q-139 0 -139 -194z" />
    <glyph glyph-name="r" unicode="r" horiz-adv-x="441" 
d="M26 0v20l70 10v458l-70 10v20h170v-77q63 86 142 86q38 0 67 -19.5t29 -55.5q0 -26 -17 -43.5t-45 -17.5q-32 0 -52 25q11 14 11 30q0 17 -11.5 27.5t-30.5 10.5q-38 0 -93 -80v-374l80 -10v-20h-250z" />
    <glyph glyph-name="s" unicode="s" horiz-adv-x="472" 
d="M243 -10q-202 0 -202 111q0 29 17.5 50t46.5 21q18 0 33.5 -11.5t21.5 -30.5q-17 -19 -17 -42q0 -39 26 -59t74 -20q62 0 102.5 28.5t40.5 65.5q0 40 -27.5 59t-90.5 39l-129 41q-90 26 -90 132q0 66 51.5 109.5t136.5 43.5q81 0 128 -28.5t47 -74.5q0 -26 -16 -43.5
t-41 -17.5q-21 0 -34.5 11.5t-13.5 31.5q21 14 21 39q0 63 -91 63q-65 0 -103 -26t-38 -62q0 -31 13.5 -46t52.5 -28l159 -49q57 -18 82.5 -53.5t25.5 -94.5q0 -63 -46.5 -111t-139.5 -48z" />
    <glyph glyph-name="t" unicode="t" horiz-adv-x="346" 
d="M318 518v-20l-130 -10v-358q0 -106 76 -106q16 0 32 5.5t24 10.5l8 6l13 -16q-45 -40 -108 -40q-145 0 -145 138v360l-71 10v20h71v83l100 25v-108h130z" />
    <glyph glyph-name="u" unicode="u" horiz-adv-x="626" 
d="M186 518v-383q0 -109 86 -109t164 106v356l-70 10v20h170v-488l70 -10v-20h-170v96q-78 -106 -195 -106q-72 0 -113.5 35.5t-41.5 107.5v355l-70 10v20h170z" />
    <glyph glyph-name="v" unicode="v" horiz-adv-x="531" 
d="M294 -20h-28l-214 508l-65 10v20h249v-20l-72 -13l151 -376l135 363l-88 25v20h179v-20l-63 -24z" />
    <glyph glyph-name="w" unicode="w" horiz-adv-x="823" 
d="M587 -20h-28l-141 338l-124 -338h-28l-214 508l-65 10v20h224v-20l-47 -13l151 -376l89 243l-59 136l-52 10v20h236v-20l-72 -13l151 -376l135 362l-84 26v20h174v-20l-62 -24z" />
    <glyph glyph-name="x" unicode="x" horiz-adv-x="597" 
d="M13 0v20l67 25l169 200l-188 244l-60 9v20h244v-20l-62 -11l136 -176l142 163l-79 23v20h184v-20l-73 -26l-158 -181l202 -261l63 -9v-20h-244v20l59 10l-149 193l-155 -180l81 -23v-20h-179z" />
    <glyph glyph-name="y" unicode="y" horiz-adv-x="536" 
d="M546 517v-20l-68 -25l-224 -651q-21 -59 -50.5 -86t-84.5 -27q-52 0 -84 26t-32 70q0 30 17.5 48.5t43.5 18.5q41 0 58 -32q-15 -21 -15 -44q0 -20 13 -33t33 -13q48 0 73 72l60 172l-232 494l-67 10v20h249v-20l-70 -12l167 -357l119 344l-86 25v20h180z" />
    <glyph glyph-name="z" unicode="z" horiz-adv-x="513" 
d="M75 368h-31l11 150h409v-25l-310 -469h221l66 137h34l-12 -161h-426v24l310 469h-212z" />
    <glyph glyph-name="braceleft" unicode="{" horiz-adv-x="313" 
d="M225 531q0 -69 -38 -114.5t-108 -60.5q70 -14 108 -59.5t38 -114.5q0 -26 -9.5 -122t-9.5 -123q0 -61 19 -86.5t65 -25.5v-19q-89 0 -135 34.5t-46 113.5q0 33 10.5 122.5t10.5 119.5q0 152 -118 152v17q118 0 118 152q0 30 -10.5 119.5t-10.5 123.5q0 79 46 113t135 34
v-18q-46 0 -65 -25.5t-19 -86.5q0 -28 9.5 -124t9.5 -122z" />
    <glyph glyph-name="bar" unicode="|" horiz-adv-x="211" 
d="M123 760v-1000h-35v1000h35z" />
    <glyph glyph-name="braceright" unicode="}" horiz-adv-x="313" 
d="M88.0137 531q0 -69 37.998 -114.5q37.9971 -45.5 107.993 -60.5q-69.9961 -14 -107.993 -59.5q-37.998 -45.5 -37.998 -114.5q0 -26 9.49902 -122q9.5 -96 9.5 -123q0 -61 -18.999 -86.5t-64.9961 -25.5v-19q88.9951 0 134.992 34.5t45.9971 113.5q0 33 -10.5 122.5
q-10.499 89.5 -10.499 119.5q0 152 117.993 152v17q-117.993 0 -117.993 152q0 30 10.499 119.5q10.5 89.5 10.5 123.5q0 79 -45.9971 113t-134.992 34v-18q45.9971 0 64.9961 -25.5t18.999 -86.5q0 -28 -9.5 -124q-9.49902 -96 -9.49902 -122z" />
    <glyph glyph-name="asciitilde" unicode="~" horiz-adv-x="531" 
d="M449 313l36 -11q-1 -5 -4 -13.5t-14 -30.5t-23.5 -38.5t-34 -30t-45.5 -13.5q-22 0 -44 11t-34 22t-33 34q-17 19 -27 28t-26.5 18.5t-31.5 9.5q-25 0 -45.5 -24.5t-28.5 -48.5l-9 -25q-37 11 -38 11q1 5 4 13.5t14 30t23.5 38t34 30t45.5 13.5q23 0 45 -11t35 -22.5
t33 -33.5q17 -19 27 -28t26 -18.5t30 -9.5q48 0 79 82z" />
    <glyph glyph-name="nonbreakingspace" unicode="&#xa0;" horiz-adv-x="239" 
 />
    <glyph glyph-name="exclamdown" unicode="&#xa1;" horiz-adv-x="228" 
d="M73 511q-17 -16.998 -17 -42.9971q0 -24.998 18 -41.4971t41 -16.499t41 16.499t18 41.4971q0 24.999 -17 42.4971q-17 17.499 -42 17.499q-11 0 -22.5 -3.99902q-11.5 -4 -19.5 -13zM127 353.01h-24q-1 -40.9971 -4 -98.4941q-3 -57.4961 -8 -119.992t-10.5 -124.492
l-10 -113.493l-7.5 -86.9951t-3 -43.4971q0 -22.999 15 -40.4971q15 -17.499 40 -17.499t40 17.499q15 17.498 15 40.4971q0 8.99902 -3 44.4971l-7.5 86.9951l-10 113.493t-10 124.492t-8 119.492q-3.5 56.9971 -4.5 97.9941z" />
    <glyph glyph-name="cent" unicode="&#xa2;" horiz-adv-x="547" 
d="M311 662v-135q85 -2 141.5 -45t56.5 -108q0 -33 -17 -50.5t-45 -17.5q-27 0 -45 18t-18 45q28 19 28 52q0 35 -27.5 58.5t-73.5 25.5v-493q66 2 113.5 40.5t60.5 99.5h23q-15 -73 -68 -116.5t-129 -45.5v-133h-36v135q-100 9 -165 82t-65 185q0 115 67 185.5t163 80.5
v137h36zM155 209q0 -80 30 -132.5t90 -62.5v489q-58 -10 -89 -60.5t-31 -133.5v-100z" />
    <glyph glyph-name="sterling" unicode="&#xa3;" horiz-adv-x="632" 
d="M63 409v38h108q-8 12 -31 43.5t-34 48.5t-21.5 46.5t-10.5 58.5q0 73 64 124.5t187 51.5q99 0 171.5 -52.5t72.5 -133.5q0 -41 -23 -64.5t-55 -23.5q-30 0 -51.5 19t-21.5 55q52 25 52 79q0 44 -38.5 71t-89.5 27q-63 0 -101.5 -36.5t-38.5 -99.5q0 -44 9 -79.5t26 -76.5
t23 -58h164v-38h-155q5 -27 5 -53q0 -20 -3 -36h153v-37h-161q-11 -38 -38 -75.5t-40.5 -50.5t-49.5 -45h345l61 161h27v-273h-503v77l31.5 31t37.5 39l28.5 36t29.5 49t15 51h-144v37h149v9q0 40 -20 80h-129z" />
    <glyph glyph-name="currency" unicode="&#xa4;" horiz-adv-x="541" 
d="M57 172l75 76q-39 47 -39 111q0 61 40 111l-75 74l27 28l75 -75q48 38 111 38q60 0 109 -39l77 77l27 -28l-76 -76q40 -48 40 -110q0 -61 -40 -111l76 -75l-27 -27l-76 75q-48 -39 -110 -39q-63 0 -112 38l-75 -75zM410 359q0 57 -41 97.5t-98 40.5q-58 0 -98.5 -40.5
t-40.5 -97.5q0 -58 40.5 -98.5t98.5 -40.5q57 0 98 40.5t41 98.5z" />
    <glyph glyph-name="yen" unicode="&#xa5;" horiz-adv-x="775" 
d="M189 344v38h138l-218 382l-79 14v22h301v-22l-93 -14l210 -363l193 329l-120 48v22h224v-22l-77 -49l-203 -347h153v-38h-158v-69h158v-38h-158v-201l93 -15v-21h-294v21l93 15v201h-163v38h163v65l-3 4h-160z" />
    <glyph glyph-name="brokenbar" unicode="&#xa6;" horiz-adv-x="220" 
d="M130 760v-400h-40v400h40zM130 160v-400h-40v400h40z" />
    <glyph glyph-name="section" unicode="&#xa7;" horiz-adv-x="523" 
d="M53 328q0 60 22 100t64 75q-71 56 -71 145q0 79 47 120.5t129 41.5q94 0 147 -32t53 -83q0 -29 -18 -48.5t-45 -19.5q-23 0 -38.5 13t-15.5 35q24 16 24 43q0 31 -30.5 51.5t-76.5 20.5q-28 0 -52.5 -6.5t-43 -19t-29 -31t-10.5 -42.5t7 -41.5t18.5 -31t26.5 -24.5
t32 -22l171 -82q109 -52 109 -146q0 -106 -87 -181q68 -56 68 -139q0 -78 -48 -119.5t-133 -41.5q-94 0 -147.5 31.5t-53.5 82.5q0 29 18 48.5t45 19.5q24 0 39 -13t15 -34q-24 -18 -24 -44q0 -31 31 -51t77 -20q28 0 53.5 6.5t44.5 19t30 30.5t11 42q0 28 -9 47t-22.5 32.5
t-29 23l-28.5 17.5l-170 82q-100 52 -100 145zM361 181l8 -5q66 58 66 125q0 34 -28.5 59t-91.5 55l-158 76q-34 -31 -50 -58t-16 -61t26 -59.5t84 -55.5z" />
    <glyph glyph-name="dieresis" unicode="&#xa8;" horiz-adv-x="391" 
d="M60 632q-9 8 -13 19.5t-4 22.5q0 25 17.5 42t42.5 17q24 0 41.5 -17.5t17.5 -41.5q0 -25 -17.5 -42t-41.5 -17q-26 0 -43 17zM246 632q-9 8 -13 19.5t-4 22.5q0 24 17.5 41.5t41.5 17.5t41.5 -17.5t17.5 -41.5t-17.5 -41.5t-41.5 -17.5q-11 0 -22.5 4t-19.5 13z" />
    <glyph glyph-name="copyright" unicode="&#xa9;" horiz-adv-x="918" 
d="M49 399q0 85 32.5 159.5t88.5 130.5t130.5 88.5t158.5 32.5t158.5 -33t130.5 -89t88.5 -130.5t32.5 -158.5t-32.5 -158.5t-88.5 -130t-130.5 -88t-158.5 -32.5t-158.5 32.5t-130.5 88t-88.5 130t-32.5 158.5zM87 399q0 -78 29 -145.5t79.5 -118t118 -79.5t145.5 -29
t145.5 29.5t117.5 80t79 118t29 144.5q0 76 -29 144t-79 118.5t-117.5 80t-145.5 29.5q-77 0 -145 -29.5t-118.5 -80t-79.5 -118.5t-29 -144zM610 662h19v-158h-19l-39 84q-45 45 -111 45q-141 0 -141 -175v-117q0 -174 141 -174q32 0 65 15t55 39l36 88h19v-165h-19l-46 33
q-50 -39 -110 -39q-54 0 -97.5 19t-74.5 53.5t-48 83t-17 106.5t17.5 106.5t48.5 83t74.5 53.5t96.5 19q57 0 107 -37z" />
    <glyph glyph-name="ordfeminine" unicode="&#xaa;" horiz-adv-x="499" 
d="M282 624h25v72q0 45 -18.5 63t-59.5 18q-33 0 -54 -12t-21 -33q0 -25 25 -34q0 -22 -17.5 -39t-40.5 -17t-38.5 16.5t-15.5 39.5q0 50 47 78.5t115 28.5q168 0 168 -125v-247q0 -26 26 -26q10 0 17 6.5t7 18.5h27q0 -29 -21 -45t-56 -16q-30 0 -54.5 16.5t-32.5 48.5
q-46 -65 -144 -65q-56 0 -90.5 27t-34.5 80q0 40 21 69.5t57 45.5t76.5 23.5t86.5 7.5zM307 517v78h-25q-61 0 -102.5 -31t-41.5 -86q0 -69 62 -69q39 0 70.5 29.5t36.5 78.5z" />
    <glyph glyph-name="guillemotleft" unicode="&#xab;" horiz-adv-x="365" 
d="M193 277l111 118l9 -9l-44 -116l44 -117l-9 -8l-111 118v14zM218 470l9 -10l-94 -190l94 -191l-9 -9l-173 191v18z" />
    <glyph glyph-name="logicalnot" unicode="&#xac;" horiz-adv-x="560" 
d="M72 375h414v-252h-36v217h-378v35z" />
    <glyph glyph-name="uni00AD" unicode="&#xad;" horiz-adv-x="384" 
d="M322 339h-260v36h260v-36z" />
    <glyph glyph-name="registered" unicode="&#xae;" horiz-adv-x="918" 
d="M49 399q0 85 32.5 159.5t88.5 130.5t130.5 88.5t158.5 32.5t158.5 -33t130.5 -89t88.5 -130.5t32.5 -158.5t-32.5 -158.5t-88.5 -130t-130.5 -88t-158.5 -32.5t-158.5 32.5t-130.5 88t-88.5 130t-32.5 158.5zM87 399q0 -78 29 -145.5t79.5 -118t118 -79.5t145.5 -29
t145.5 29.5t117.5 80t79 118t29 144.5t-29 144.5t-79 118t-117.5 80t-145.5 29.5q-77 0 -145 -29.5t-118.5 -80t-79.5 -118t-29 -144.5zM695 194l17 -19q-36 -39 -88 -39q-75 0 -86 76l-13 86q-6 42 -27.5 64.5t-71.5 22.5h-40v-210l59 -9v-24h-201v24l60 9v446l-60 9v24
h219q106 0 152.5 -32.5t46.5 -99.5q0 -110 -161 -127v-4q103 -14 119 -114l9 -55q3 -25 8 -36t18 -11q19 0 40 19zM448 628h-62v-217h62q123 0 123 108v13q0 96 -123 96z" />
    <glyph glyph-name="macron" unicode="&#xaf;" horiz-adv-x="459" 
d="M459 700v-34h-459v34h459z" />
    <glyph glyph-name="degree" unicode="&#xb0;" horiz-adv-x="367" 
d="M80 505q-43 43 -43 104q0 30 11.5 57t32 46.5t47 31t56.5 11.5t56.5 -11.5t46.5 -31.5t31.5 -46.5t11.5 -56.5t-11.5 -56.5t-31 -47t-46.5 -32t-57 -11.5q-61 0 -104 43zM292 609q0 21 -9 40.5t-24 34.5t-34.5 24t-40.5 9q-22 0 -41.5 -8.5t-34.5 -23.5t-23.5 -34.5
t-8.5 -41.5t8.5 -41.5t23.5 -34.5t34.5 -23.5t41.5 -8.5t41.5 8.5t34.5 23.5t23.5 34.5t8.5 41.5z" />
    <glyph glyph-name="plusminus" unicode="&#xb1;" horiz-adv-x="607" 
d="M74 112v38h459v-38h-459zM284 537h38v-161h211v-38h-211v-161h-38v161h-210v38h210v161z" />
    <glyph glyph-name="twosuperior" unicode="&#xb2;" horiz-adv-x="387" 
d="M325 523v-143h-274v40l116 113q82 80 82 166q0 39 -19 61.5t-50 22.5q-26 0 -44 -12t-18 -34q0 -25 31 -42q0 -21 -12.5 -32.5t-31.5 -11.5q-18 0 -32 14t-14 38q0 49 35 75.5t90 26.5q70 0 106 -30.5t36 -79.5q0 -45 -25.5 -81t-72.5 -73l-120 -97h166l28 79h23z" />
    <glyph glyph-name="threesuperior" unicode="&#xb3;" horiz-adv-x="369" 
d="M131 602v21q54 3 75.5 25t21.5 67q0 68 -63 68q-50 0 -50 -37q0 -24 29 -35q0 -20 -12 -31t-29 -11q-18 0 -30.5 13.5t-12.5 36.5q0 43 33 64.5t82 21.5q60 0 94 -23.5t34 -69.5q0 -84 -120 -99v-2q147 -9 147 -119q0 -50 -44.5 -85.5t-121.5 -35.5q-51 0 -87 27.5
t-36 70.5q0 23 13 36.5t31 13.5q17 0 29.5 -11t12.5 -31q-30 -16 -30 -40q0 -44 67 -44q34 0 57.5 25t23.5 74q0 54 -26 80t-88 30z" />
    <glyph glyph-name="acute" unicode="&#xb4;" horiz-adv-x="234" 
d="M193 722q0 -23 -17 -35l-131 -116l-16 12l74 158q12 28 43 28q19 0 33 -14t14 -33z" />
    <glyph glyph-name="mu" unicode="&#xb5;" horiz-adv-x="646" 
d="M96 133v385h100v-383q0 -109 86 -109q84 0 164 117v375h100v-488l70 -10v-20h-170v107q-81 -117 -195 -117q-81 0 -120 42q8 -116 37 -181.5t82 -92.5q-11 -22 -33.5 -36t-51.5 -14q-75 0 -75 81z" />
    <glyph glyph-name="mu" unicode="&#x3bc;" horiz-adv-x="646" 
d="M96 133v385h100v-383q0 -109 86 -109q84 0 164 117v375h100v-488l70 -10v-20h-170v107q-81 -117 -195 -117q-81 0 -120 42q8 -116 37 -181.5t82 -92.5q-11 -22 -33.5 -36t-51.5 -14q-75 0 -75 81z" />
    <glyph glyph-name="paragraph" unicode="&#xb6;" horiz-adv-x="547" 
d="M228 -112v538q-92 0 -144 53t-52 134t52 134t143 53h277v-22l-92 -14v-876h-42v879h-99v-879h-43z" />
    <glyph glyph-name="periodcentered" unicode="&#xb7;" horiz-adv-x="240" 
d="M74 253q-10 10 -14.5 22t-4.5 24q0 27 20.5 46t44.5 19q25 0 45 -20t20 -45q0 -24 -19 -44.5t-46 -20.5q-12 0 -24 4.5t-22 14.5z" />
    <glyph glyph-name="cedilla" unicode="&#xb8;" horiz-adv-x="343" 
d="M159 9l-13 -53q122 -5 122 -92q0 -48 -36.5 -72t-89.5 -24q-40 0 -72 9l6 22q12 -3 28 -3q33 0 56 16t23 51q0 27 -18 45.5t-54 22.5l21 78h27z" />
    <glyph glyph-name="onesuperior" unicode="&#xb9;" horiz-adv-x="249" 
d="M50 779v21h114v-399l42 -5v-21h-156v21l42 5v373z" />
    <glyph glyph-name="ordmasculine" unicode="&#xba;" horiz-adv-x="501" 
d="M366 547v81q0 69 -28 109t-88 40t-88 -40t-28 -109v-81q0 -69 28 -109t88 -40t88 40t28 109zM36 587q0 49 16.5 89t45 68.5t67.5 44.5t85 16q45 0 84.5 -16t68.5 -44.5t45.5 -69t16.5 -88.5t-16.5 -87.5t-45.5 -68t-68.5 -44.5t-84.5 -16q-46 0 -85 15.5t-67.5 44
t-45 68.5t-16.5 88z" />
    <glyph glyph-name="guillemotright" unicode="&#xbb;" horiz-adv-x="365" 
d="M172 263l-111 -118l-9 8l44 117l-44 116l9 9l111 -118v-14zM320 279v-18l-173 -191l-9 9l94 191l-94 190l9 10z" />
    <glyph glyph-name="onequarter" unicode="&#xbc;" horiz-adv-x="667" 
d="M44 779v21h114v-399l42 -5v-21h-156v21l42 5v373zM332 104v11l224 311h25v-288h48v-34h-48v-74l48 -8v-21h-168v21l49 8v74h-178zM379 138h131v181zM569 800l-399 -800h-52l400 800h51z" />
    <glyph glyph-name="onehalf" unicode="&#xbd;" horiz-adv-x="700" 
d="M47 779v21h114v-399l42 -5v-21h-156v21l42 5v373zM657 144v-143h-274v40l116 113q82 80 82 166q0 39 -19 61.5t-50 22.5q-26 0 -44 -12t-18 -34q0 -25 31 -42q0 -21 -12.5 -32.5t-31.5 -11.5q-18 0 -32 14t-14 38q0 49 35 75.5t90 26.5q70 0 106 -30.5t36 -79.5
q0 -45 -25.5 -81t-72.5 -73l-120 -97h166l28 79h23zM541 800l-399 -800h-52l400 800h51z" />
    <glyph glyph-name="threequarters" unicode="&#xbe;" horiz-adv-x="696" 
d="M355 104v11l224 311h25v-288h48v-34h-48v-74l48 -8v-21h-168v21l49 8v74h-178zM402 138h131v181zM127 602v21q54 3 75.5 25t21.5 67q0 68 -63 68q-50 0 -50 -37q0 -24 29 -35q0 -20 -12 -31t-29 -11q-18 0 -30.5 13.5t-12.5 36.5q0 43 33 64.5t82 21.5q60 0 94 -23.5
t34 -69.5q0 -84 -120 -99v-2q147 -9 147 -119q0 -50 -44.5 -85.5t-121.5 -35.5q-51 0 -87 27.5t-36 70.5q0 23 13 36.5t31 13.5q17 0 29.5 -11t12.5 -31q-30 -16 -30 -40q0 -44 67 -44q34 0 57.5 25t23.5 74q0 54 -26 80t-88 30zM618 800l-399 -800h-52l400 800h51z" />
    <glyph glyph-name="questiondown" unicode="&#xbf;" horiz-adv-x="515" 
d="M328.012 510q16.999 -16.998 16.999 -42.9971q0 -24.998 -17.999 -41.4971t-40.9971 -16.499q-22.999 0 -40.998 16.499t-17.999 41.4971q0 24.999 16.999 42.4971q16.999 17.499 41.998 17.499q10.999 0 22.498 -3.99902q11.499 -4 19.499 -13zM297.014 352.01
q0 -50.9961 -10.499 -92.9941q-10.5 -41.9971 -25.499 -77.9951t-33.498 -68.9961t-33.498 -65.9961q-14.999 -32.9971 -25.498 -68.4951t-10.499 -76.4961q0 -50.9961 7.49902 -85.9941q7.5 -34.998 21.499 -55.9971q13.999 -20.998 34.498 -30.498
q20.498 -9.49902 46.4971 -9.49902q23.998 0 45.9971 6.99902q21.998 7 39.4971 18.999q17.499 12 27.499 28.998q9.99902 16.999 9.99902 37.998q0 51.9971 -49.9971 75.9951q0 34.998 20.499 53.4971t49.4971 18.499q29.998 0 52.4961 -22.499
q22.499 -22.498 22.499 -61.4961q0 -39.9971 -19.499 -72.9951t-51.9961 -56.4971q-32.498 -23.498 -74.9961 -36.498q-42.4971 -12.999 -87.4941 -12.999q-107.994 0 -161.99 44.9971q-53.9971 44.998 -53.9971 151.991q0 36.998 10.5 66.9961
q10.499 29.998 27.998 55.4961q17.499 25.499 38.9971 49.4971l42.498 48.9971l56.9961 66.9961q25.999 31.998 44.4971 76.4951q18.499 44.4971 17.499 93.4941h21.999z" />
    <glyph glyph-name="Agrave" unicode="&#xc0;" horiz-adv-x="721" 
d="M187 21v-21h-214v21l98 40l289 759h16l273 -784l92 -15v-21h-294v21l82 13l-85 237h-266l-81 -210zM317 644l-131 -352h251zM217 900q-17 5 -26 18.5t-9 28.5q0 20 16 32.5t34 12.5t30 -12l131 -114l-9 -17z" />
    <glyph glyph-name="Aacute" unicode="&#xc1;" horiz-adv-x="721" 
d="M187 21v-21h-214v21l98 40l289 759h16l273 -784l92 -15v-21h-294v21l82 13l-85 237h-266l-81 -210zM317 644l-131 -352h251zM496 900l-167 -51l-10 17l132 114q14 12 32 12q20 0 33.5 -14t13.5 -33q0 -15 -9.5 -27.5t-24.5 -17.5z" />
    <glyph glyph-name="Acircumflex" unicode="&#xc2;" horiz-adv-x="721" 
d="M187 21v-21h-214v21l98 40l289 759h16l273 -784l92 -15v-21h-294v21l82 13l-85 237h-266l-81 -210zM317 644l-131 -352h251zM520 840l-148 69l-148 -69l-9 15l128 122h59l127 -122z" />
    <glyph glyph-name="Atilde" unicode="&#xc3;" horiz-adv-x="721" 
d="M187 21v-21h-214v21l98 40l289 759h16l273 -784l92 -15v-21h-294v21l82 13l-85 237h-266l-81 -210zM317 644l-131 -352h251zM440 842q-38 0 -83 35.5t-71 35.5q-38 0 -56 -49l-28 4l3 11.5t12 26.5t22.5 33t36 26t51.5 12q30 0 57 -17.5t51 -35.5t46 -18q40 0 56 49
l28 -4l-3 -11.5t-12 -26.5t-22.5 -33t-36 -26t-51.5 -12z" />
    <glyph glyph-name="Adieresis" unicode="&#xc4;" horiz-adv-x="721" 
d="M187 21v-21h-214v21l98 40l289 759h16l273 -784l92 -15v-21h-294v21l82 13l-85 237h-266l-81 -210zM317 644l-131 -352h251zM226 875q-9 8 -13 19.5t-4 22.5q0 25 17.5 42t42.5 17q24 0 41.5 -17.5t17.5 -41.5q0 -25 -17.5 -42t-41.5 -17q-26 0 -43 17zM412 875
q-9 8 -13 19.5t-4 22.5q0 25 17.5 42t42.5 17t41.5 -18t16.5 -41t-16.5 -41t-41.5 -18q-26 0 -43 17z" />
    <glyph glyph-name="Aring" unicode="&#xc5;" horiz-adv-x="721" 
d="M369 978h5q20 0 36.5 -8.5t28.5 -22.5t18.5 -31.5t6.5 -35.5q0 -16 -6 -31t-16.5 -27.5t-25 -21t-30.5 -11.5l263 -753l92 -15v-21h-294v21l82 13l-85 237h-266l-81 -210l90 -40v-21h-214v21l98 40l277 729q-15 3 -28.5 11.5t-23.5 20.5t-15.5 27t-5.5 30q0 18 6.5 36
t18 32t28 22.5t36.5 8.5h5zM317 644l-131 -352h251zM325 926q-18 -18 -18 -43q0 -26 18.5 -44t43.5 -18t44 18.5t19 43.5q0 24 -19.5 43t-43.5 19q-25 0 -44 -19z" />
    <glyph glyph-name="AE" unicode="&#xc6;" horiz-adv-x="1113" 
d="M831 560h27v-316h-27l-59 147h-120v-367h299l82 220h27v-244h-517v309h-292l-164 -249l89 -39v-21h-214v21l95 39l462 704l-85 14v22h603v-229h-27l-77 204h-281v-360h120zM265 330h278v421z" />
    <glyph glyph-name="Ccedilla" unicode="&#xc7;" horiz-adv-x="740" 
d="M654 820h21v-248h-21l-62 155q-77 70 -173 70q-106 0 -171.5 -81t-65.5 -224v-183q0 -144 63 -225t169 -81q51 0 102 22.5t85 60.5l58 161h21v-257h-21l-72 51q-77 -61 -173 -61h-7l-8 -34q122 -5 122 -92q0 -48 -36.5 -72t-89.5 -24q-41 0 -72 9l6 22q12 -3 28 -3
q33 0 56 16t23 51q0 27 -18 45.5t-54 22.5l16 61q-150 12 -239 126t-89 292q0 188 101 304t266 116q90 0 168 -57z" />
    <glyph glyph-name="Egrave" unicode="&#xc8;" horiz-adv-x="720" 
d="M433 560h26v-316h-26l-60 147h-129v-367h314l82 220h26v-244h-624v21l92 15v728l-92 14v22h602v-229h-27l-77 204h-296v-360h130zM266 901q-17 5 -26 18.5t-9 28.5q0 20 16 32.5t34 12.5t30 -12l131 -114l-9 -17z" />
    <glyph glyph-name="Eacute" unicode="&#xc9;" horiz-adv-x="720" 
d="M433 560h26v-316h-26l-60 147h-129v-367h314l82 220h26v-244h-624v21l92 15v728l-92 14v22h602v-229h-27l-77 204h-296v-360h130zM516 900l-167 -51l-10 17l132 114q14 12 32 12q20 0 33.5 -14t13.5 -33q0 -15 -9.5 -27.5t-24.5 -17.5z" />
    <glyph glyph-name="Ecircumflex" unicode="&#xca;" horiz-adv-x="720" 
d="M433 560h26v-316h-26l-60 147h-129v-367h314l82 220h26v-244h-624v21l92 15v728l-92 14v22h602v-229h-27l-77 204h-296v-360h130zM534 840l-148 69l-148 -69l-9 15l128 122h59l127 -122z" />
    <glyph glyph-name="Edieresis" unicode="&#xcb;" horiz-adv-x="720" 
d="M433 560h26v-316h-26l-60 147h-129v-367h314l82 220h26v-244h-624v21l92 15v728l-92 14v22h602v-229h-27l-77 204h-296v-360h130zM275 875q-9 8 -13 19.5t-4 22.5q0 25 17.5 42t42.5 17q24 0 41.5 -17.5t17.5 -41.5q0 -25 -17.5 -42t-41.5 -17q-26 0 -43 17zM461 875
q-9 8 -13 19.5t-4 22.5q0 25 17.5 42t42.5 17t41.5 -18t16.5 -41t-16.5 -41t-41.5 -18q-26 0 -43 17z" />
    <glyph glyph-name="Igrave" unicode="&#xcc;" horiz-adv-x="374" 
d="M336 21v-21h-294v21l92 15v728l-92 14v22h294v-22l-92 -14v-728zM47 900q-17 5 -26 18.5t-9 28.5q0 20 16 32.5t34 12.5t30 -12l131 -114l-9 -17z" />
    <glyph glyph-name="Iacute" unicode="&#xcd;" horiz-adv-x="374" 
d="M336 21v-21h-294v21l92 15v728l-92 14v22h294v-22l-92 -14v-728zM318 900l-167 -51l-10 17l132 114q14 12 32 12q20 0 33.5 -14t13.5 -33q0 -15 -9.5 -27.5t-24.5 -17.5z" />
    <glyph glyph-name="Icircumflex" unicode="&#xce;" horiz-adv-x="374" 
d="M336 21v-21h-294v21l92 15v728l-92 14v22h294v-22l-92 -14v-728zM336 840l-148 69l-148 -69l-9 15l128 122h59l127 -122z" />
    <glyph glyph-name="Idieresis" unicode="&#xcf;" horiz-adv-x="374" 
d="M336 21v-21h-294v21l92 15v728l-92 14v22h294v-22l-92 -14v-728zM52 888q-9 8 -13 19.5t-4 22.5q0 25 17.5 42t42.5 17q24 0 41.5 -17.5t17.5 -41.5q0 -25 -17.5 -42t-41.5 -17q-26 0 -43 17zM238 888q-9 8 -13 19.5t-4 22.5q0 25 17.5 42t42.5 17t41.5 -18t16.5 -41
t-16.5 -41t-41.5 -18q-26 0 -43 17z" />
    <glyph glyph-name="Eth" unicode="&#xd0;" horiz-adv-x="850" 
d="M54 375v33h76v356l-92 14v22h383q82 0 151.5 -29t119.5 -81.5t78 -126t28 -163.5t-27.5 -164t-77.5 -126.5t-119.5 -81t-152.5 -28.5h-383v21l92 15v339h-76zM421 775h-181v-367h184v-33h-184v-351h185q110 2 178 79.5t68 219.5v154q0 144 -69 221t-181 77z" />
    <glyph glyph-name="Ntilde" unicode="&#xd1;" horiz-adv-x="810" 
d="M134 61v678l-93 39v22h186l431 -604v543l-93 39v22h213v-22l-95 -39v-739h-25l-499 701v-640l96 -40v-21h-214v21zM481 842q-38 0 -83 35.5t-71 35.5q-38 0 -56 -49l-28 4l3 11.5t12 26.5t22.5 33t36 26t51.5 12q30 0 57 -17.5t51 -35.5t46 -18q40 0 56 49l28 -4
l-3 -11.5t-12 -26.5t-22.5 -33t-36 -26t-51.5 -12z" />
    <glyph glyph-name="Ograve" unicode="&#xd2;" 
d="M51 400q0 94 28 171t78.5 132.5t119.5 86t151 30.5t151.5 -31t119.5 -86.5t78 -132.5t28 -170q0 -92 -27.5 -169t-77.5 -133t-119.5 -87t-152.5 -31t-152 31t-119 86.5t-78 132.5t-28 170zM681 323v154q0 74 -19 133t-52.5 100.5t-80 64t-101.5 22.5t-101.5 -22.5
t-80 -64t-52.5 -100.5t-19 -133v-154q0 -74 18.5 -133.5t52.5 -101t80 -63.5t102 -22q55 0 101.5 22t80.5 63.5t52.5 101t18.5 133.5zM308 900q-17 5 -26 18.5t-9 28.5q0 20 16 32.5t34 12.5t30 -12l131 -114l-9 -17z" />
    <glyph glyph-name="Oacute" unicode="&#xd3;" 
d="M51 400q0 94 28 171t78.5 132.5t119.5 86t151 30.5t151.5 -31t119.5 -86.5t78 -132.5t28 -170q0 -92 -27.5 -169t-77.5 -133t-119.5 -87t-152.5 -31t-152 31t-119 86.5t-78 132.5t-28 170zM681 323v154q0 74 -19 133t-52.5 100.5t-80 64t-101.5 22.5t-101.5 -22.5
t-80 -64t-52.5 -100.5t-19 -133v-154q0 -74 18.5 -133.5t52.5 -101t80 -63.5t102 -22q55 0 101.5 22t80.5 63.5t52.5 101t18.5 133.5zM576 900l-167 -51l-10 17l132 114q14 12 32 12q20 0 33.5 -14t13.5 -33q0 -15 -9.5 -27.5t-24.5 -17.5z" />
    <glyph glyph-name="Ocircumflex" unicode="&#xd4;" 
d="M51 400q0 94 28 171t78.5 132.5t119.5 86t151 30.5t151.5 -31t119.5 -86.5t78 -132.5t28 -170q0 -92 -27.5 -169t-77.5 -133t-119.5 -87t-152.5 -31t-152 31t-119 86.5t-78 132.5t-28 170zM681 323v154q0 74 -19 133t-52.5 100.5t-80 64t-101.5 22.5t-101.5 -22.5
t-80 -64t-52.5 -100.5t-19 -133v-154q0 -74 18.5 -133.5t52.5 -101t80 -63.5t102 -22q55 0 101.5 22t80.5 63.5t52.5 101t18.5 133.5zM575 840l-148 69l-148 -69l-9 15l128 122h59l127 -122z" />
    <glyph glyph-name="Otilde" unicode="&#xd5;" 
d="M51 400q0 94 28 171t78.5 132.5t119.5 86t151 30.5t151.5 -31t119.5 -86.5t78 -132.5t28 -170q0 -92 -27.5 -169t-77.5 -133t-119.5 -87t-152.5 -31t-152 31t-119 86.5t-78 132.5t-28 170zM681 323v154q0 74 -19 133t-52.5 100.5t-80 64t-101.5 22.5t-101.5 -22.5
t-80 -64t-52.5 -100.5t-19 -133v-154q0 -74 18.5 -133.5t52.5 -101t80 -63.5t102 -22q55 0 101.5 22t80.5 63.5t52.5 101t18.5 133.5zM507 842q-38 0 -83 35.5t-71 35.5q-38 0 -56 -49l-28 4l3 11.5t12 26.5t22.5 33t36 26t51.5 12q30 0 57 -17.5t51 -35.5t46 -18
q40 0 56 49l28 -4l-3 -11.5t-12 -26.5t-22.5 -33t-36 -26t-51.5 -12z" />
    <glyph glyph-name="Odieresis" unicode="&#xd6;" 
d="M51 400q0 94 28 171t78.5 132.5t119.5 86t151 30.5t151.5 -31t119.5 -86.5t78 -132.5t28 -170q0 -92 -27.5 -169t-77.5 -133t-119.5 -87t-152.5 -31t-152 31t-119 86.5t-78 132.5t-28 170zM681 323v154q0 74 -19 133t-52.5 100.5t-80 64t-101.5 22.5t-101.5 -22.5
t-80 -64t-52.5 -100.5t-19 -133v-154q0 -74 18.5 -133.5t52.5 -101t80 -63.5t102 -22q55 0 101.5 22t80.5 63.5t52.5 101t18.5 133.5zM292 888q-9 8 -13 19.5t-4 22.5q0 25 17.5 42t42.5 17q24 0 41.5 -17.5t17.5 -41.5q0 -25 -17.5 -42t-41.5 -17q-26 0 -43 17zM478 888
q-9 8 -13 19.5t-4 22.5q0 25 17.5 42t42.5 17t41.5 -18t16.5 -41t-16.5 -41t-41.5 -18q-26 0 -43 17z" />
    <glyph glyph-name="multiply" unicode="&#xd7;" horiz-adv-x="489" 
d="M58 515l27 27l158 -159l160 160l27 -27l-160 -160l160 -159l-27 -27l-159 160l-159 -159l-27 27l158 158z" />
    <glyph glyph-name="Oslash" unicode="&#xd8;" 
d="M428 -20q-83 0 -154 31l-14 -33h-42l22 50q-89 52 -139 149t-50 223q0 187 105.5 303.5t271.5 116.5q83 0 157 -33l16 35h41l-24 -53q88 -52 137.5 -148t49.5 -221q0 -186 -105.5 -303t-271.5 -117zM175 323q0 -168 88 -254l303 684q-61 44 -138 44q-111 0 -182 -85.5
t-71 -234.5v-154zM428 3q111 0 182 85.5t71 234.5v154q0 162 -86 250l-303 -683q59 -41 136 -41z" />
    <glyph glyph-name="Ugrave" unicode="&#xd9;" horiz-adv-x="810" 
d="M689 219q0 -120 -67 -179.5t-218 -59.5q-147 0 -215 65.5t-68 173.5v545l-92 14v22h294v-22l-92 -14v-545q0 -203 222 -203q212 0 212 203v520l-93 39v22h213v-22l-96 -39v-520zM324 900q-17 5 -26 18.5t-9 28.5q0 20 16 32.5t34 12.5t30 -12l131 -114l-9 -17z" />
    <glyph glyph-name="Uacute" unicode="&#xda;" horiz-adv-x="810" 
d="M689 219q0 -120 -67 -179.5t-218 -59.5q-147 0 -215 65.5t-68 173.5v545l-92 14v22h294v-22l-92 -14v-545q0 -203 222 -203q212 0 212 203v520l-93 39v22h213v-22l-96 -39v-520zM558 900l-167 -51l-10 17l132 114q14 12 32 12q20 0 33.5 -14t13.5 -33q0 -15 -9.5 -27.5
t-24.5 -17.5z" />
    <glyph glyph-name="Ucircumflex" unicode="&#xdb;" horiz-adv-x="810" 
d="M689 219q0 -120 -67 -179.5t-218 -59.5q-147 0 -215 65.5t-68 173.5v545l-92 14v22h294v-22l-92 -14v-545q0 -203 222 -203q212 0 212 203v520l-93 39v22h213v-22l-96 -39v-520zM587 840l-148 69l-148 -69l-9 15l128 122h59l127 -122z" />
    <glyph glyph-name="Udieresis" unicode="&#xdc;" horiz-adv-x="810" 
d="M689 219q0 -120 -67 -179.5t-218 -59.5q-147 0 -215 65.5t-68 173.5v545l-92 14v22h294v-22l-92 -14v-545q0 -203 222 -203q212 0 212 203v520l-93 39v22h213v-22l-96 -39v-520zM308 886q-9 8 -13 19.5t-4 22.5q0 25 17.5 42t42.5 17q24 0 41.5 -17.5t17.5 -41.5
q0 -25 -17.5 -42t-41.5 -17q-26 0 -43 17zM494 886q-9 8 -13 19.5t-4 22.5q0 25 17.5 42t42.5 17t41.5 -18t16.5 -41t-16.5 -41t-41.5 -18q-26 0 -43 17z" />
    <glyph glyph-name="Yacute" unicode="&#xdd;" horiz-adv-x="676" 
d="M488 900l-167 -51l-10 17l132 114q14 12 32 12q20 0 33.5 -14t13.5 -33q0 -15 -9.5 -27.5t-24.5 -17.5zM399 373v-337l93 -15v-21h-294v21l93 15v304l-243 424l-79 14v22h301v-22l-93 -14l210 -363l193 329l-120 48v22h224v-22l-77 -49z" />
    <glyph glyph-name="Thorn" unicode="&#xde;" horiz-adv-x="704" 
d="M336 21v-21h-298v21l92 15v728l-92 14v22h298v-22l-92 -14v-140h112q165 0 242.5 -52.5t77.5 -168.5q0 -115 -77.5 -167.5t-242.5 -52.5h-112v-147zM342 600h-98v-393h98q206 0 206 181v30q0 182 -206 182z" />
    <glyph glyph-name="germandbls" unicode="&#xdf;" horiz-adv-x="646" 
d="M537 672q0 -20 -3.5 -36.5t-21 -39t-38.5 -35t-30 -17l-38.5 -18.5l-39.5 -19q-37 -18 -55.5 -36.5t-18.5 -43.5t18 -43t37.5 -25.5t50.5 -15.5l102 -26q121 -31 121 -158q0 -75 -43.5 -122t-140.5 -47q-187 0 -187 94q0 28 17.5 45.5t46.5 17.5q18 0 33.5 -11.5
t21.5 -29.5q-17 -20 -17 -43q0 -26 23 -40t62 -14q63 0 106 31.5t43 76.5q0 23 -7.5 38.5t-25.5 26t-32.5 16t-43.5 13.5l-90 25q-66 19 -99 56t-33 102q0 28 8.5 49.5t25 37t31 24.5t36.5 20q49 23 65 53.5t16 93.5q0 130 -111 130q-136 0 -136 -197v-605h-170v20l70 10
v532q0 258 236 258q104 0 157.5 -40t53.5 -108z" />
    <glyph glyph-name="agrave" unicode="&#xe0;" horiz-adv-x="558" 
d="M366 99q-25 -51 -75 -80t-113 -29q-61 0 -101 33.5t-40 99.5q0 51 25 84.5t66 54t93.5 28.5t107.5 8h37v95q0 112 -102 112q-45 0 -74 -21t-29 -47q0 -29 28 -38q0 -25 -19 -44t-45 -19t-44 18.5t-18 44.5q0 29 16.5 52.5t44 40.5t64 26t76.5 9q202 0 202 -154v-306
q0 -45 37 -45t37 43h21q0 -35 -23 -55t-66 -20t-74 27t-32 82zM366 170v103h-37q-78 0 -130.5 -37t-52.5 -113q0 -40 22 -63t60 -23q49 0 90.5 36t47.5 97zM122 722q0 19 14 33t33 14q30 0 44 -28l73 -158l-16 -12l-131 116q-17 14 -17 35z" />
    <glyph glyph-name="aacute" unicode="&#xe1;" horiz-adv-x="558" 
d="M366 99q-25 -51 -75 -80t-113 -29q-61 0 -101 33.5t-40 99.5q0 51 25 84.5t66 54t93.5 28.5t107.5 8h37v95q0 112 -102 112q-45 0 -74 -21t-29 -47q0 -29 28 -38q0 -25 -19 -44t-45 -19t-44 18.5t-18 44.5q0 29 16.5 52.5t44 40.5t64 26t76.5 9q202 0 202 -154v-306
q0 -45 37 -45t37 43h21q0 -35 -23 -55t-66 -20t-74 27t-32 82zM366 170v103h-37q-78 0 -130.5 -37t-52.5 -113q0 -40 22 -63t60 -23q49 0 90.5 36t47.5 97zM393 722q0 -23 -17 -35l-131 -116l-16 12l74 158q12 28 43 28q19 0 33 -14t14 -33z" />
    <glyph glyph-name="acircumflex" unicode="&#xe2;" horiz-adv-x="558" 
d="M366 99q-25 -51 -75 -80t-113 -29q-61 0 -101 33.5t-40 99.5q0 51 25 84.5t66 54t93.5 28.5t107.5 8h37v95q0 112 -102 112q-45 0 -74 -21t-29 -47q0 -29 28 -38q0 -25 -19 -44t-45 -19t-44 18.5t-18 44.5q0 29 16.5 52.5t44 40.5t64 26t76.5 9q202 0 202 -154v-306
q0 -45 37 -45t37 43h21q0 -35 -23 -55t-66 -20t-74 27t-32 82zM366 170v103h-37q-78 0 -130.5 -37t-52.5 -113q0 -40 22 -63t60 -23q49 0 90.5 36t47.5 97zM254 759h39l120 -155l-21 -15l-119 94l-118 -94l-21 15z" />
    <glyph glyph-name="atilde" unicode="&#xe3;" horiz-adv-x="558" 
d="M366 99q-25 -51 -75 -80t-113 -29q-61 0 -101 33.5t-40 99.5q0 51 25 84.5t66 54t93.5 28.5t107.5 8h37v95q0 112 -102 112q-45 0 -74 -21t-29 -47q0 -29 28 -38q0 -25 -19 -44t-45 -19t-44 18.5t-18 44.5q0 29 16.5 52.5t44 40.5t64 26t76.5 9q202 0 202 -154v-306
q0 -45 37 -45t37 43h21q0 -35 -23 -55t-66 -20t-74 27t-32 82zM366 170v103h-37q-78 0 -130.5 -37t-52.5 -113q0 -40 22 -63t60 -23q49 0 90.5 36t47.5 97zM347 602q-38 0 -95.5 35.5t-82.5 35.5q-39 0 -57 -49l-27 4l3 11.5t11.5 26.5t22 33t36 26t52.5 12q38 0 95.5 -35.5
t82.5 -35.5q39 0 57 49l27 -4l-3 -11.5t-11.5 -26.5t-22 -33t-36 -26t-52.5 -12z" />
    <glyph glyph-name="adieresis" unicode="&#xe4;" horiz-adv-x="558" 
d="M366 99q-25 -51 -75 -80t-113 -29q-61 0 -101 33.5t-40 99.5q0 51 25 84.5t66 54t93.5 28.5t107.5 8h37v95q0 112 -102 112q-45 0 -74 -21t-29 -47q0 -29 28 -38q0 -25 -19 -44t-45 -19t-44 18.5t-18 44.5q0 29 16.5 52.5t44 40.5t64 26t76.5 9q202 0 202 -154v-306
q0 -45 37 -45t37 43h21q0 -35 -23 -55t-66 -20t-74 27t-32 82zM366 170v103h-37q-78 0 -130.5 -37t-52.5 -113q0 -40 22 -63t60 -23q49 0 90.5 36t47.5 97zM133 628q-9 8 -13 19.5t-4 22.5q0 25 17.5 42t42.5 17q24 0 41.5 -17.5t17.5 -41.5q0 -25 -17.5 -42t-41.5 -17
q-26 0 -43 17zM319 628q-9 8 -13 19.5t-4 22.5q0 24 17.5 41.5t41.5 17.5t41.5 -17.5t17.5 -41.5t-17.5 -41.5t-41.5 -17.5q-11 0 -22.5 4t-19.5 13z" />
    <glyph glyph-name="aring" unicode="&#xe5;" horiz-adv-x="558" 
d="M366 99q-25 -51 -75 -80t-113 -29q-61 0 -101 33.5t-40 99.5q0 51 25 84.5t66 54t93.5 28.5t107.5 8h37v95q0 112 -102 112q-45 0 -74 -21t-29 -47q0 -29 28 -38q0 -25 -19 -44t-45 -19t-44 18.5t-18 44.5q0 29 16.5 52.5t44 40.5t64 26t76.5 9q202 0 202 -154v-306
q0 -45 37 -45t37 43h21q0 -35 -23 -55t-66 -20t-74 27t-32 82zM366 170v103h-37q-78 0 -130.5 -37t-52.5 -113q0 -40 22 -63t60 -23q49 0 90.5 36t47.5 97zM262 761q20 0 37.5 -7.5t30 -20.5t20 -30.5t7.5 -36.5q0 -20 -7.5 -37t-20 -30t-30 -20.5t-37.5 -7.5t-37 7.5
t-29.5 20.5t-20 30t-7.5 37q0 19 7.5 36.5t20 30.5t29.5 20.5t37 7.5zM218 709q-18 -18 -18 -43q0 -26 18.5 -44t43.5 -18t44 18.5t19 43.5q0 24 -19.5 43t-43.5 19q-25 0 -44 -19z" />
    <glyph glyph-name="ae" unicode="&#xe6;" horiz-adv-x="874" 
d="M622 12q69 0 122 39t65 101h23q-14 -74 -71 -118t-139 -44t-147.5 39.5t-93.5 108.5q-55 -148 -203 -148q-61 0 -101 34t-40 99q0 50 25 85.5t69 54.5t92.5 27t105.5 8h37v95q0 112 -102 112q-45 0 -74 -21t-29 -47q0 -29 28 -38q0 -25 -19 -44t-45 -19t-44 18.5
t-18 44.5q0 57 59 92.5t142 35.5q132 0 177 -66q71 66 175 66q96 0 157 -61t63 -158h-368v-99q0 -88 39.5 -142.5t114.5 -54.5zM228 37q53 0 95.5 45.5t42.5 108.5v82h-37q-78 0 -130.5 -37t-52.5 -113q0 -40 22 -63t60 -23zM616 505q-67 0 -104.5 -46.5t-42.5 -125.5h258
q0 172 -111 172z" />
    <glyph glyph-name="ccedilla" unicode="&#xe7;" horiz-adv-x="543" 
d="M381 369q15 11 21 22.5t6 29.5q0 37 -29 60.5t-79 23.5q-72 0 -110.5 -51.5t-38.5 -144.5v-100q0 -42 9 -78.5t27 -62.5t46 -41t67 -15q34 0 64 10t54 28.5t40.5 44t22.5 57.5h23q-14 -72 -65 -114.5t-125 -46.5l-8 -35q53 -2 87.5 -23.5t34.5 -68.5q0 -26 -11 -44
t-28.5 -29.5t-40 -17t-46.5 -5.5q-41 0 -72 9l6 22q12 -3 28 -3q15 0 29 3.5t25 11.5t18 20.5t7 31.5q0 26 -17 45t-55 23l16 59q-51 3 -96 23t-78.5 55t-52.5 83.5t-19 107.5q0 65 22 115t58 84t82.5 51.5t96.5 17.5q43 0 80.5 -11.5t65.5 -31.5t44 -48.5t16 -61.5
q0 -35 -18 -51.5t-44 -16.5q-27 0 -45 18t-18 45z" />
    <glyph glyph-name="egrave" unicode="&#xe8;" horiz-adv-x="557" 
d="M305 12q34 0 65.5 10.5t56.5 29t42 44t23 56.5h23q-14 -75 -71 -118.5t-139 -43.5q-56 0 -104.5 19.5t-84 54.5t-55.5 85t-20 110t20 109.5t54.5 84.5t82 54.5t101.5 19.5q48 0 88 -16t69 -45.5t45.5 -69.5t17.5 -88h-368v-99q0 -44 10 -80t29.5 -62t48 -40.5t66.5 -14.5
zM298 505q-67 0 -104 -47t-42 -125h257q0 172 -111 172zM154 722q0 19 14 33t33 14q30 0 44 -28l73 -158l-16 -12l-131 116q-17 14 -17 35z" />
    <glyph glyph-name="eacute" unicode="&#xe9;" horiz-adv-x="557" 
d="M305 12q34 0 65.5 10.5t56.5 29t42 44t23 56.5h23q-14 -75 -71 -118.5t-139 -43.5q-56 0 -104.5 19.5t-84 54.5t-55.5 85t-20 110t20 109.5t54.5 84.5t82 54.5t101.5 19.5q48 0 88 -16t69 -45.5t45.5 -69.5t17.5 -88h-368v-99q0 -44 10 -80t29.5 -62t48 -40.5t66.5 -14.5
zM298 505q-67 0 -104 -47t-42 -125h257q0 172 -111 172zM427 722q0 -23 -17 -35l-131 -116l-16 12l74 158q12 28 43 28q19 0 33 -14t14 -33z" />
    <glyph glyph-name="ecircumflex" unicode="&#xea;" horiz-adv-x="557" 
d="M305 12q34 0 65.5 10.5t56.5 29t42 44t23 56.5h23q-14 -75 -71 -118.5t-139 -43.5q-56 0 -104.5 19.5t-84 54.5t-55.5 85t-20 110t20 109.5t54.5 84.5t82 54.5t101.5 19.5q48 0 88 -16t69 -45.5t45.5 -69.5t17.5 -88h-368v-99q0 -44 10 -80t29.5 -62t48 -40.5t66.5 -14.5
zM298 505q-67 0 -104 -47t-42 -125h257q0 172 -111 172zM282 759h39l120 -155l-21 -15l-119 94l-118 -94l-21 15z" />
    <glyph glyph-name="edieresis" unicode="&#xeb;" horiz-adv-x="557" 
d="M305 12q34 0 65.5 10.5t56.5 29t42 44t23 56.5h23q-14 -75 -71 -118.5t-139 -43.5q-56 0 -104.5 19.5t-84 54.5t-55.5 85t-20 110t20 109.5t54.5 84.5t82 54.5t101.5 19.5q48 0 88 -16t69 -45.5t45.5 -69.5t17.5 -88h-368v-99q0 -44 10 -80t29.5 -62t48 -40.5t66.5 -14.5
zM298 505q-67 0 -104 -47t-42 -125h257q0 172 -111 172zM155 628q-9 8 -13 19.5t-4 22.5q0 25 17.5 42t42.5 17q24 0 41.5 -17.5t17.5 -41.5q0 -25 -17.5 -42t-41.5 -17q-26 0 -43 17zM341 628q-9 8 -13 19.5t-4 22.5q0 24 17.5 41.5t41.5 17.5t41.5 -17.5t17.5 -41.5
t-17.5 -41.5t-41.5 -17.5q-11 0 -22.5 4t-19.5 13z" />
    <glyph glyph-name="igrave" unicode="&#xec;" horiz-adv-x="287" 
d="M-3 722q0 19 14 33t33 14q30 0 44 -28l73 -158l-16 -12l-131 116q-17 14 -17 35zM27 497v20h170v-487l70 -10v-20h-240v20l70 10v457z" />
    <glyph glyph-name="iacute" unicode="&#xed;" horiz-adv-x="287" 
d="M277 722q0 -23 -17 -35l-131 -116l-16 12l74 158q12 28 43 28q19 0 33 -14t14 -33zM27 497v20h170v-487l70 -10v-20h-240v20l70 10v457z" />
    <glyph glyph-name="icircumflex" unicode="&#xee;" horiz-adv-x="287" 
d="M120 759h39l120 -155l-21 -15l-119 94l-118 -94l-21 15zM27 497v20h170v-487l70 -10v-20h-240v20l70 10v457z" />
    <glyph glyph-name="idieresis" unicode="&#xef;" horiz-adv-x="287" 
d="M27 497v20h170v-487l70 -10v-20h-240v20l70 10v457zM8 628q-9 8 -13 19.5t-4 22.5q0 25 17.5 42t42.5 17q24 0 41.5 -17.5t17.5 -41.5q0 -25 -17.5 -42t-41.5 -17q-26 0 -43 17zM194 628q-9 8 -13 19.5t-4 22.5q0 24 17.5 41.5t41.5 17.5t41.5 -17.5t17.5 -41.5
t-17.5 -41.5t-41.5 -17.5q-11 0 -22.5 4t-19.5 13z" />
    <glyph glyph-name="eth" unicode="&#xf0;" horiz-adv-x="622" 
d="M498 798l13 -22l-105 -58q154 -115 154 -346v-113q0 -60 -20 -109.5t-55 -85t-82.5 -55t-102.5 -19.5t-102 19.5t-82 55t-55 85t-20 109.5t20 109.5t55 85t82.5 54.5t101.5 19q82 0 147 -34q-7 140 -74 207l-128 -71l-12 24l119 65q-29 22 -69 39.5t-91 30.5l5 22
q109 -26 186 -75zM450 393q0 28 -2 74q-69 38 -148 38q-74 0 -111.5 -53.5t-37.5 -142.5v-100q0 -89 37.5 -143t111.5 -54t112 54t38 143v184z" />
    <glyph glyph-name="ntilde" unicode="&#xf1;" horiz-adv-x="633" 
d="M386 0v20l60 10v352q0 109 -86 109q-46 0 -88.5 -33.5t-75.5 -82.5v-345l60 -10v-20h-230v20l70 10v458l-70 10v20h170v-108q81 117 195 117q72 0 113.5 -36t41.5 -107v-354l70 -10v-20h-230zM409 602q-38 0 -95.5 35.5t-82.5 35.5q-39 0 -57 -49l-27 4l3 11.5t11.5 26.5
t22 33t36 26t52.5 12q38 0 95.5 -35.5t82.5 -35.5q39 0 57 49l27 -4l-3 -11.5t-11.5 -26.5t-22 -33t-36 -26t-52.5 -12z" />
    <glyph glyph-name="ograve" unicode="&#xf2;" horiz-adv-x="600" 
d="M449 209v100q0 90 -37 143t-112 53t-112 -53t-37 -143v-100q0 -89 37.5 -143t111.5 -54t111.5 54t37.5 143zM115 64q-74 76 -74 195q0 60 20 109.5t55 85t82.5 54.5t101.5 19q55 0 102 -19.5t82 -55t55 -85t20 -108.5t-20 -108.5t-54.5 -85t-82 -55.5t-102.5 -20
q-109 0 -185 74zM160 722q0 19 14 33t33 14q30 0 44 -28l73 -158l-16 -12l-131 116q-17 14 -17 35z" />
    <glyph glyph-name="oacute" unicode="&#xf3;" horiz-adv-x="600" 
d="M449 209v100q0 90 -37 143t-112 53t-112 -53t-37 -143v-100q0 -89 37.5 -143t111.5 -54t111.5 54t37.5 143zM115 64q-74 76 -74 195q0 60 20 109.5t55 85t82.5 54.5t101.5 19q55 0 102 -19.5t82 -55t55 -85t20 -108.5t-20 -108.5t-54.5 -85t-82 -55.5t-102.5 -20
q-109 0 -185 74zM451 722q0 -23 -17 -35l-131 -116l-16 12l74 158q12 28 43 28q19 0 33 -14t14 -33z" />
    <glyph glyph-name="ocircumflex" unicode="&#xf4;" horiz-adv-x="600" 
d="M449 209v100q0 90 -37 143t-112 53t-112 -53t-37 -143v-100q0 -89 37.5 -143t111.5 -54t111.5 54t37.5 143zM115 64q-74 76 -74 195q0 60 20 109.5t55 85t82.5 54.5t101.5 19q55 0 102 -19.5t82 -55t55 -85t20 -108.5t-20 -108.5t-54.5 -85t-82 -55.5t-102.5 -20
q-109 0 -185 74zM281 759h39l120 -155l-21 -15l-119 94l-118 -94l-21 15z" />
    <glyph glyph-name="otilde" unicode="&#xf5;" horiz-adv-x="600" 
d="M449 209v100q0 90 -37 143t-112 53t-112 -53t-37 -143v-100q0 -89 37.5 -143t111.5 -54t111.5 54t37.5 143zM115 64q-74 76 -74 195q0 60 20 109.5t55 85t82.5 54.5t101.5 19q55 0 102 -19.5t82 -55t55 -85t20 -108.5t-20 -108.5t-54.5 -85t-82 -55.5t-102.5 -20
q-109 0 -185 74zM378 602q-38 0 -95.5 35.5t-82.5 35.5q-39 0 -57 -49l-27 4l3 11.5t11.5 26.5t22 33t36 26t52.5 12q38 0 95.5 -35.5t82.5 -35.5q39 0 57 49l27 -4l-3 -11.5t-11.5 -26.5t-22 -33t-36 -26t-52.5 -12z" />
    <glyph glyph-name="odieresis" unicode="&#xf6;" horiz-adv-x="600" 
d="M449 209v100q0 90 -37 143t-112 53t-112 -53t-37 -143v-100q0 -89 37.5 -143t111.5 -54t111.5 54t37.5 143zM115 64q-74 76 -74 195q0 60 20 109.5t55 85t82.5 54.5t101.5 19q55 0 102 -19.5t82 -55t55 -85t20 -108.5t-20 -108.5t-54.5 -85t-82 -55.5t-102.5 -20
q-109 0 -185 74zM165 628q-9 8 -13 19.5t-4 22.5q0 25 17.5 42t42.5 17q24 0 41.5 -17.5t17.5 -41.5q0 -25 -17.5 -42t-41.5 -17q-26 0 -43 17zM351 628q-9 8 -13 19.5t-4 22.5q0 24 17.5 41.5t41.5 17.5t41.5 -17.5t17.5 -41.5t-17.5 -41.5t-41.5 -17.5q-11 0 -22.5 4
t-19.5 13z" />
    <glyph glyph-name="divide" unicode="&#xf7;" horiz-adv-x="591" 
d="M296 250q23 0 38.5 -15.5t15.5 -37.5t-16 -38t-38 -16t-38 16t-16 38t16 37.5t38 15.5zM258 479q-16 16 -16 39q0 22 16.5 37.5t37.5 15.5t37.5 -15.5t16.5 -37.5t-15.5 -38.5t-38.5 -16.5t-38 16zM71 338v38h449v-38h-449z" />
    <glyph glyph-name="oslash" unicode="&#xf8;" horiz-adv-x="600" 
d="M41 259q0 120 74.5 194t184.5 74q47 0 93 -16l40 90h40l-46 -105q61 -33 96.5 -94.5t35.5 -142.5q0 -120 -74.5 -194.5t-184.5 -74.5q-51 0 -96 17l-36 -81h-40l43 96q-60 33 -95 94.5t-35 142.5zM449 209v100q0 98 -42 149l-188 -423q34 -23 81 -23q74 0 111.5 54
t37.5 143zM151 209q0 -94 40 -147l187 422q-34 21 -78 21q-74 0 -111.5 -53.5t-37.5 -142.5v-100z" />
    <glyph glyph-name="ugrave" unicode="&#xf9;" horiz-adv-x="626" 
d="M186 518v-383q0 -109 86 -109t164 106v356l-70 10v20h170v-488l70 -10v-20h-170v96q-78 -106 -195 -106q-72 0 -113.5 35.5t-41.5 107.5v355l-70 10v20h170zM161 722q0 19 14 33t33 14q30 0 44 -28l73 -158l-16 -12l-131 116q-17 14 -17 35z" />
    <glyph glyph-name="uacute" unicode="&#xfa;" horiz-adv-x="626" 
d="M186 518v-383q0 -109 86 -109t164 106v356l-70 10v20h170v-488l70 -10v-20h-170v96q-78 -106 -195 -106q-72 0 -113.5 35.5t-41.5 107.5v355l-70 10v20h170zM413 722q0 -23 -17 -35l-131 -116l-16 12l74 158q12 28 43 28q19 0 33 -14t14 -33z" />
    <glyph glyph-name="ucircumflex" unicode="&#xfb;" horiz-adv-x="626" 
d="M186 518v-383q0 -109 86 -109t164 106v356l-70 10v20h170v-488l70 -10v-20h-170v96q-78 -106 -195 -106q-72 0 -113.5 35.5t-41.5 107.5v355l-70 10v20h170zM288 759h39l120 -155l-21 -15l-119 94l-118 -94l-21 15z" />
    <glyph glyph-name="udieresis" unicode="&#xfc;" horiz-adv-x="626" 
d="M186 518v-383q0 -109 86 -109t164 106v356l-70 10v20h170v-488l70 -10v-20h-170v96q-78 -106 -195 -106q-72 0 -113.5 35.5t-41.5 107.5v355l-70 10v20h170zM174 628q-9 8 -13 19.5t-4 22.5q0 25 17.5 42t42.5 17q24 0 41.5 -17.5t17.5 -41.5q0 -25 -17.5 -42t-41.5 -17
q-26 0 -43 17zM360 628q-9 8 -13 19.5t-4 22.5q0 24 17.5 41.5t41.5 17.5t41.5 -17.5t17.5 -41.5t-17.5 -41.5t-41.5 -17.5q-11 0 -22.5 4t-19.5 13z" />
    <glyph glyph-name="yacute" unicode="&#xfd;" horiz-adv-x="536" 
d="M546 517v-20l-68 -25l-224 -651q-21 -59 -50.5 -86t-84.5 -27q-52 0 -84 26t-32 70q0 30 17.5 48.5t43.5 18.5q41 0 58 -32q-15 -21 -15 -44q0 -20 13 -33t33 -13q48 0 73 72l60 172l-232 494l-67 10v20h249v-20l-70 -12l167 -357l119 344l-86 25v20h180zM436 722
q0 -23 -17 -35l-131 -116l-16 12l74 158q12 28 43 28q19 0 33 -14t14 -33z" />
    <glyph glyph-name="thorn" unicode="&#xfe;" horiz-adv-x="624" 
d="M177 800v-382q54 109 166 109q54 0 98 -19.5t75.5 -55t48.5 -85t17 -109.5t-17 -109.5t-48 -84.5t-75.5 -54.5t-98.5 -19.5q-113 0 -166 107v-350l94 -10v-20h-264v20l70 10v1023l-70 10v20h170zM472 208v100q0 194 -139 194q-60 0 -102.5 -44.5t-53.5 -111.5v-176
q11 -67 53.5 -111t102.5 -44q139 0 139 193z" />
    <glyph glyph-name="ydieresis" unicode="&#xff;" horiz-adv-x="536" 
d="M546 517v-20l-68 -25l-224 -651q-21 -59 -50.5 -86t-84.5 -27q-52 0 -84 26t-32 70q0 30 17.5 48.5t43.5 18.5q41 0 58 -32q-15 -21 -15 -44q0 -20 13 -33t33 -13q48 0 73 72l60 172l-232 494l-67 10v20h249v-20l-70 -12l167 -357l119 344l-86 25v20h180zM155 628
q-9 8 -13 19.5t-4 22.5q0 25 17.5 42t42.5 17q24 0 41.5 -17.5t17.5 -41.5q0 -25 -17.5 -42t-41.5 -17q-26 0 -43 17zM341 628q-9 8 -13 19.5t-4 22.5q0 24 17.5 41.5t41.5 17.5t41.5 -17.5t17.5 -41.5t-17.5 -41.5t-41.5 -17.5q-11 0 -22.5 4t-19.5 13z" />
    <glyph glyph-name="dotlessi" unicode="&#x131;" horiz-adv-x="287" 
d="M27 497v20h170v-487l70 -10v-20h-240v20l70 10v457z" />
    <glyph glyph-name="OE" unicode="&#x152;" horiz-adv-x="1233" 
d="M954 560h26v-316h-26l-60 147h-117v-367h294l82 220h26v-244h-501v91q-91 -111 -250 -111q-166 0 -271.5 117t-105.5 303q0 187 105.5 303.5t271.5 116.5q158 0 250 -111v91h479v-229h-27l-77 204h-276v-360h117zM428 3q110 0 174.5 84.5t64.5 235.5v154
q0 151 -64.5 235.5t-174.5 84.5q-111 0 -180 -85t-69 -235v-154q0 -150 69 -235t180 -85z" />
    <glyph glyph-name="oe" unicode="&#x153;" horiz-adv-x="966" 
d="M713 12q34 0 65.5 10.5t56.5 29t42 44t23 56.5h23q-7 -38 -25.5 -68t-46 -51t-62.5 -32t-76 -11q-132 0 -209 98q-35 -48 -88 -73t-116 -25q-55 0 -102 19.5t-82 55t-55 85t-20 109.5t20 109.5t55 85t82.5 54.5t101.5 19q129 0 204 -97q73 97 204 97q47 0 87 -16t69 -45
t46 -69.5t18 -88.5h-368v-99q0 -44 10 -80t29 -62t47.5 -40.5t66.5 -14.5zM449 209v100q0 90 -37 143t-112 53t-112 -53t-37 -143v-100q0 -89 37.5 -143t111.5 -54t111.5 54t37.5 143zM707 505q-67 0 -104 -47t-42 -125h257q0 172 -111 172z" />
    <glyph glyph-name="circumflex" unicode="&#x2c6;" horiz-adv-x="357" 
d="M159 759h39l120 -155l-21 -15l-119 94l-118 -94l-21 15z" />
    <glyph glyph-name="caron" unicode="&#x2c7;" horiz-adv-x="357" 
d="M198 589h-39l-120 156l21 14l118 -94l119 94l21 -14z" />
    <glyph glyph-name="ring" unicode="&#x2da;" horiz-adv-x="263" 
d="M131 765q20 0 37.5 -7.5t30 -20.5t20 -30.5t7.5 -36.5q0 -20 -7.5 -37t-20 -30t-30 -20.5t-37.5 -7.5t-37 7.5t-29.5 20.5t-20 30t-7.5 37q0 19 7.5 36.5t20 30.5t29.5 20.5t37 7.5zM87 713q-18 -18 -18 -43q0 -26 18.5 -44t43.5 -18t44 18.5t19 43.5q0 24 -19.5 43
t-43.5 19q-25 0 -44 -19z" />
    <glyph glyph-name="tilde" unicode="&#x2dc;" horiz-adv-x="452" 
d="M290 602q-38 0 -95.5 35.5t-82.5 35.5q-39 0 -57 -49l-27 4l3 11.5t11.5 26.5t22 33t36 26t52.5 12q38 0 95.5 -35.5t82.5 -35.5q39 0 57 49l27 -4l-3 -11.5t-11.5 -26.5t-22 -33t-36 -26t-52.5 -12z" />
    <glyph glyph-name="endash" unicode="&#x2013;" horiz-adv-x="634" 
d="M572 375v-36h-510v36h510z" />
    <glyph glyph-name="emdash" unicode="&#x2014;" horiz-adv-x="1134" 
d="M1072 374v-34h-1010v34h1010z" />
    <glyph glyph-name="quoteleft" unicode="&#x2018;" horiz-adv-x="220" 
d="M164 809l11 -16q-15 -9 -29 -22t-25.5 -28.5t-18 -32.5t-6.5 -33q0 -20 20 -20q25 0 42.5 -17.5t17.5 -42.5t-17.5 -41.5t-42.5 -16.5q-35 0 -55.5 25t-20.5 67q0 117 124 178z" />
    <glyph glyph-name="quoteright" unicode="&#x2019;" horiz-adv-x="219" 
d="M61 539l-11 16q15 9 29 22t25.5 28.5t18 32t6.5 33.5q0 20 -20 20q-25 0 -42.5 17.5t-17.5 42.5t17.5 41.5t42.5 16.5q35 0 55.5 -25t20.5 -67q0 -117 -124 -178z" />
    <glyph glyph-name="quotesinglbase" unicode="&#x201a;" horiz-adv-x="228" 
d="M60 -162l-11 16q15 9 29 22t25.5 28.5t18 32t6.5 33.5q0 20 -20 20q-25 0 -42.5 17.5t-17.5 42.5t17.5 41.5t42.5 16.5q35 0 55.5 -25t20.5 -67q0 -117 -124 -178z" />
    <glyph glyph-name="quotedblleft" unicode="&#x201c;" horiz-adv-x="393" 
d="M164 809l11 -16q-15 -9 -29 -22t-25.5 -28.5t-18 -32.5t-6.5 -33q0 -20 20 -20q25 0 42.5 -17.5t17.5 -42.5t-17.5 -41.5t-42.5 -16.5q-35 0 -55.5 25t-20.5 67q0 117 124 178zM337 809l11 -16q-15 -9 -29 -22t-25.5 -28.5t-18 -32.5t-6.5 -33q0 -20 20 -20
q25 0 42.5 -17.5t17.5 -42.5t-17.5 -41.5t-42.5 -16.5q-35 0 -55.5 25t-20.5 67q0 117 124 178z" />
    <glyph glyph-name="quotedblright" unicode="&#x201d;" horiz-adv-x="392" 
d="M61 539l-11 16q15 9 29 22t25.5 28.5t18 32t6.5 33.5q0 20 -20 20q-25 0 -42.5 17.5t-17.5 42.5t17.5 41.5t42.5 16.5q35 0 55.5 -25t20.5 -67q0 -117 -124 -178zM234 539l-11 16q15 9 29 22t25.5 28.5t18 32t6.5 33.5q0 20 -20 20q-25 0 -42.5 17.5t-17.5 42.5
t17.5 41.5t42.5 16.5q35 0 55.5 -25t20.5 -67q0 -117 -124 -178z" />
    <glyph glyph-name="quotedblbase" unicode="&#x201e;" horiz-adv-x="401" 
d="M60 -162l-11 16q15 9 29 22t25.5 28.5t18 32t6.5 33.5q0 20 -20 20q-25 0 -42.5 17.5t-17.5 42.5t17.5 41.5t42.5 16.5q35 0 55.5 -25t20.5 -67q0 -117 -124 -178zM233 -162l-11 16q15 9 29 22t25.5 28.5t18 32t6.5 33.5q0 20 -20 20q-25 0 -42.5 17.5t-17.5 42.5
t17.5 41.5t42.5 16.5q35 0 55.5 -25t20.5 -67q0 -117 -124 -178z" />
    <glyph glyph-name="bullet" unicode="&#x2022;" horiz-adv-x="468" 
d="M169 293q-14 14 -20 30.5t-6 33.5q0 18 7.5 34.5t20 29t29 20t34.5 7.5t34.5 -7.5t29 -20t20 -29t7.5 -34.5t-7.5 -34.5t-20 -29t-29 -20t-34.5 -7.5q-38 0 -65 27z" />
    <glyph glyph-name="guilsinglleft" unicode="&#x2039;" horiz-adv-x="278" 
d="M45 279l173 191l9 -10l-94 -190l94 -191l-9 -9l-173 191v18z" />
    <glyph glyph-name="guilsinglright" unicode="&#x203a;" horiz-adv-x="278" 
d="M233 261l-173 -191l-9 9l94 191l-94 190l9 10l173 -191v-18z" />
    <glyph glyph-name="fraction" unicode="&#x2044;" horiz-adv-x="407" 
d="M429 800l-399 -800h-52l400 800h51z" />
    <glyph glyph-name="foursuperior" unicode="&#x2074;" horiz-adv-x="359" 
d="M13 478v11l224 311h25v-288h48v-34h-48v-74l48 -8v-21h-168v21l49 8v74h-178zM60 512h131v181z" />
    <glyph glyph-name="Euro" unicode="&#x20ac;" horiz-adv-x="807" 
d="M709 820h21v-248h-21l-62 155q-77 70 -173 70q-106 0 -171.5 -81t-65.5 -224v-23h267l-15 -38h-252v-79h221l-15 -38h-206v-5q0 -144 63 -225t169 -81q51 0 102 22.5t85 60.5l58 161h21v-257h-21l-72 51q-77 -61 -173 -61q-145 0 -239.5 90.5t-116.5 243.5h-78v38h74
q-2 30 -2 48q0 21 1 31h-73v38h76q18 160 116 255.5t247 95.5q90 0 168 -57z" />
    <glyph glyph-name="minus" unicode="&#x2212;" horiz-adv-x="594" 
d="M72 338v38h450v-38h-450z" />
    <glyph glyph-name="foundryicon" horiz-adv-x="1056" 
d="M1007 251h-16q1 -2 1 -5q0 -14 -11 -24.5t-34 -10.5q-9 0 -12 1v-15h18q39 0 39 -36q0 -8 -2 -13.5t-4 -9.5h-27v29h-46q-5 4 -7.5 10t-2.5 12q0 18 14 30q-14 8 -14 28q0 16 11.5 26.5t31.5 10.5q18 0 31 -10q8 10 19 10q4 0 6 -0.5t5 -1.5v-31zM245 175
q-6 -22 -17.5 -29.5t-25.5 -7.5q-19 0 -26 7v26h17q16 0 21 11h-14l-24 69h-10v31h38l14 -49l5 -24l11 42h-9v31h43v-31zM158 187q-18 -8 -41 -8q-31 0 -48.5 17.5t-17.5 48.5q0 32 17 51.5t51 19.5q9 0 19 -2t20 -5v-40h-31v15q-3 1 -9 1q-14 0 -21.5 -10t-7.5 -26
q0 -37 37 -37h32v-25zM748 179q-49 0 -49 52q0 25 13.5 39t36.5 14t36.5 -13.5t13.5 -38.5t-13.5 -39t-37.5 -14zM484 277q9 3 17.5 5t18.5 2q46 0 46 -38v-34h11v-27q-8 -5 -20 -5q-16 0 -22 7q-9 -8 -25 -8q-14 0 -24 8t-10 23q0 14 9 22t30 8h16v1q0 4 -4.5 7t-17.5 3
h-25v26zM461 212v-26q-8 -4 -18 -5.5t-19 -1.5q-26 0 -39.5 13.5t-13.5 37.5t12 39t37 15q20 0 32 -12t12 -30q0 -4 -0.5 -8.5t-1.5 -9.5h-55q4 -12 25 -12h29zM811 251v31h34l10 -16q2 5 4.5 7.5l5.5 5.5q7 5 15 5q6 0 12 -2v-31h-34v-39h17v-30h-62v30h9v39h-11zM282 251
v31h34l10 -16q2 5 4.5 7.5l5.5 5.5q7 5 15 5q6 0 12 -2v-31h-34v-39h17v-30h-62v30h10v39h-12zM589 285h-12v31h47v-104h14v-28q-9 -4 -22 -4q-27 0 -27 28v77zM651 199q0 8 5 14t15 6q11 0 16.5 -6t5.5 -14t-5.5 -13.5t-16.5 -5.5q-10 0 -15 5.5t-5 13.5zM749 206
q14 0 14 26q0 24 -14 24t-14 -24q0 -26 14 -26zM936 247q0 -15 12 -15q10 0 10 15t-10 15q-12 0 -12 -15zM520 204q7 0 11 3v15h-8q-13 0 -13 -9t10 -9zM419 258q-10 0 -13 -16h25q0 16 -12 16z" />
    <glyph glyph-name="acute.case" horiz-adv-x="260" 
d="M201 861l-167 -51l-10 17l132 114q14 12 32 12q20 0 33.5 -14t13.5 -33q0 -15 -9.5 -27.5t-24.5 -17.5z" />
    <glyph glyph-name="circumflex.case" horiz-adv-x="382" 
d="M339 827l-148 69l-148 -69l-9 15l128 122h59l127 -122z" />
    <glyph glyph-name="dieresis.case" horiz-adv-x="353" 
d="M41 850q-9 8 -13 19.5t-4 22.5q0 25 17.5 42t42.5 17q24 0 41.5 -17.5t17.5 -41.5q0 -25 -17.5 -42t-41.5 -17q-26 0 -43 17zM227 850q-9 8 -13 19.5t-4 22.5q0 25 17.5 42t42.5 17t41.5 -18t16.5 -41t-16.5 -41t-41.5 -18q-26 0 -43 17z" />
    <glyph glyph-name="noBreak" horiz-adv-x="0" 
 />
    <glyph glyph-name="ring.case" horiz-adv-x="238" 
d="M52 826q-14 14 -21 31.5t-7 35.5q0 19 7.5 36.5t20.5 30.5t30.5 20.5t36.5 7.5t36.5 -7.5t30.5 -20.5t20.5 -30.5t7.5 -36.5t-7.5 -36.5t-20.5 -30.5t-30.5 -20.5t-36.5 -7.5q-18 0 -35.5 7t-31.5 21zM75 936q-18 -18 -18 -43q0 -26 18.5 -44t43.5 -18t44 18.5t19 43.5
q0 24 -19.5 43t-43.5 19q-25 0 -44 -19z" />
    <glyph glyph-name="caron.case" horiz-adv-x="343" 
d="M24 959l147 -69l148 69l10 -16l-128 -121h-59l-127 121z" />
    <glyph glyph-name="tilde.case" horiz-adv-x="458" 
d="M280 822q-38 0 -83 35.5t-71 35.5q-38 0 -56 -49l-28 4l3 11.5t12 26.5t22.5 33t36 26t51.5 12q30 0 57 -17.5t51 -35.5t46 -18q40 0 56 49l28 -4l-3 -11.5t-12 -26.5t-22.5 -33t-36 -26t-51.5 -12z" />
    <glyph glyph-name="grave.case" horiz-adv-x="260" 
d="M59 861q-17 5 -26 18.5t-9 28.5q0 20 16 32.5t34 12.5t30 -12l131 -114l-9 -17z" />
    </font>
</defs>
</svg>
