<?xml version="1.0" encoding="iso-8859-1"?>
<!-- Generator: Adobe Illustrator 19.0.0, SVG Export Plug-In . SVG Version: 6.00 Build 0)  -->
<svg version="1.1" id="Capa_1" xmlns="http://www.w3.org/2000/svg" xmlns:xlink="http://www.w3.org/1999/xlink" x="0px" y="0px"
	 viewBox="0 0 512 512" style="enable-background:new 0 0 512 512;" xml:space="preserve">
<g>
	<g>
		<path d="M452,363.509V316c0-24.813-20.187-45-45-45h-46v-45c0-24.813-20.187-45-45-45h-45v-32.509
			c34.192-6.968,60-37.271,60-73.491c0-41.355-33.645-75-75-75c-41.355,0-75,33.645-75,75c0,36.219,25.808,66.522,60,73.491V181h-45
			c-24.813,0-45,20.187-45,45v45h-46c-24.813,0-45,20.187-45,45v47.509C25.808,370.478,0,400.781,0,437c0,41.355,33.645,75,75,75
			s75-33.645,75-75c0-36.219-25.808-66.522-60-73.491V316c0-8.271,6.729-15,15-15c4.409,0,131.512,0,136,0v62.509
			c-34.192,6.968-60,37.271-60,73.491c0,41.355,33.645,75,75,75s75-33.645,75-75c0-36.219-25.808-66.522-60-73.491V301
			c4.491,0,131.601,0,136,0c8.271,0,15,6.729,15,15v47.509c-34.192,6.968-60,37.271-60,73.491c0,41.355,33.645,75,75,75
			c41.355,0,75-33.645,75-75C512,400.781,486.192,370.478,452,363.509z M120,437c0,24.813-20.187,45-45,45s-45-20.187-45-45
			s20.187-45,45-45S120,412.187,120,437z M211,75c0-24.813,20.187-45,45-45s45,20.187,45,45s-20.187,45-45,45S211,99.813,211,75z
			 M301,437c0,24.813-20.187,45-45,45s-45-20.187-45-45s20.187-45,45-45S301,412.187,301,437z M331,271H181v-45
			c0-8.271,6.729-15,15-15h120c8.271,0,15,6.729,15,15V271z M437,482c-24.813,0-45-20.187-45-45s20.187-45,45-45s45,20.187,45,45
			S461.813,482,437,482z"/>
	</g>
</g>
<g>
</g>
<g>
</g>
<g>
</g>
<g>
</g>
<g>
</g>
<g>
</g>
<g>
</g>
<g>
</g>
<g>
</g>
<g>
</g>
<g>
</g>
<g>
</g>
<g>
</g>
<g>
</g>
<g>
</g>
</svg>
